<svg width="22" height="28" viewBox="0 0 22 28" fill="none" xmlns="http://www.w3.org/2000/svg">
<path fill-rule="evenodd" clip-rule="evenodd" d="M21.6673 1.31484V26.001C21.6673 26.7373 21.0704 27.3343 20.334 27.3343H1.66732C0.930938 27.3343 0.333984 26.7373 0.333984 26.001V1.31484C0.333984 1.01749 0.646909 0.824093 0.91287 0.957073L5.48843 3.24485C5.60104 3.30116 5.73359 3.30116 5.8462 3.24485L10.8218 0.757073C10.9344 0.700767 11.0669 0.700767 11.1795 0.757073L16.1551 3.24485C16.2677 3.30116 16.4003 3.30116 16.5129 3.24485L21.0884 0.957073C21.3544 0.824093 21.6673 1.01749 21.6673 1.31484ZM4.33398 8.66763C4.33398 7.93125 4.93094 7.3343 5.66732 7.3343H16.334C17.0704 7.3343 17.6673 7.93125 17.6673 8.66763C17.6673 9.40401 17.0704 10.001 16.334 10.001H5.66732C4.93094 10.001 4.33398 9.40401 4.33398 8.66763ZM4.33398 15.3343C4.33398 14.5979 4.93094 14.001 5.66732 14.001H16.334C17.0704 14.001 17.6673 14.5979 17.6673 15.3343C17.6673 16.0707 17.0704 16.6676 16.334 16.6676H5.66732C4.93094 16.6676 4.33398 16.0707 4.33398 15.3343ZM4.33398 22.001C4.33398 21.2646 4.93094 20.6676 5.66732 20.6676H12.334C13.0704 20.6676 13.6673 21.2646 13.6673 22.001C13.6673 22.7373 13.0704 23.3343 12.334 23.3343H5.66732C4.93094 23.3343 4.33398 22.7373 4.33398 22.001Z" fill="#6A9586"/>
</svg>
