<svg width="19" height="20" viewBox="0 0 19 20" fill="none" xmlns="http://www.w3.org/2000/svg">
<path d="M4.5 0C3.96957 0 3.46086 0.210714 3.08579 0.585786C2.71071 0.960859 2.5 1.46957 2.5 2C2.5 2.53043 2.71071 3.03914 3.08579 3.41421C3.46086 3.78929 3.96957 4 4.5 4C5.03043 4 5.53914 3.78929 5.91421 3.41421C6.28929 3.03914 6.5 2.53043 6.5 2C6.5 1.46957 6.28929 0.960859 5.91421 0.585786C5.53914 0.210714 5.03043 0 4.5 0ZM9.5 0C8.96957 0 8.46086 0.210714 8.08579 0.585786C7.71071 0.960859 7.5 1.46957 7.5 2C7.5 2.53043 7.71071 3.03914 8.08579 3.41421C8.46086 3.78929 8.96957 4 9.5 4C10.0304 4 10.5391 3.78929 10.9142 3.41421C11.2893 3.03914 11.5 2.53043 11.5 2C11.5 1.46957 11.2893 0.960859 10.9142 0.585786C10.5391 0.210714 10.0304 0 9.5 0ZM14.5 0C13.9696 0 13.4609 0.210714 13.0858 0.585786C12.7107 0.960859 12.5 1.46957 12.5 2C12.5 2.53043 12.7107 3.03914 13.0858 3.41421C13.4609 3.78929 13.9696 4 14.5 4C15.0304 4 15.5391 3.78929 15.9142 3.41421C16.2893 3.03914 16.5 2.53043 16.5 2C16.5 1.46957 16.2893 0.960859 15.9142 0.585786C15.5391 0.210714 15.0304 0 14.5 0ZM2.5 5C1.395 5 0.5 5.895 0.5 7V14H1.5V20H3.5V12H2.5V7H3.60156C3.75356 6.257 4.08339 5.584 4.52539 5H2.5ZM8.5 5C6.843 5 5.5 6.343 5.5 8V16H6.5V20H8.5V16H10.5V20H12.5V16H13.5V8C13.5 6.343 12.157 5 10.5 5H8.5ZM14.4746 5C14.9166 5.584 15.2474 6.257 15.3984 7H16.5V12H15.5V20H17.5V14H18.5V7C18.5 5.895 17.605 5 16.5 5H14.4746Z" fill="white"/>
</svg>
