<svg width="12" height="14" viewBox="0 0 12 14" fill="none" xmlns="http://www.w3.org/2000/svg">
<path d="M2 0.666016V1.99935H1.33333C0.6 1.99935 0 2.59935 0 3.33268V12.666C0 13.3993 0.6 13.9993 1.33333 13.9993H10.6667C11.4 13.9993 12 13.3993 12 12.666V3.33268C12 2.59935 11.4 1.99935 10.6667 1.99935H10V0.666016H8.66667V1.99935H3.33333V0.666016H2ZM1.33333 5.33268H10.6667V12.666H1.33333V5.33268ZM4.66667 7.33268L2.66667 9.33268L4.66667 11.3327V9.99935H7.33333V11.3327L9.33333 9.33268L7.33333 7.33268V8.66602H4.66667V7.33268Z" fill="#707FDA"/>
</svg>
