<svg width="186" height="18" viewBox="0 0 186 18" fill="none" xmlns="http://www.w3.org/2000/svg">
<g clip-path="url(#clip0_14465_70449)">
<path d="M27.9789 11.3549C27.9789 11.6661 27.9409 11.9922 27.865 12.333H19.778C19.8236 12.9556 19.9678 13.3854 20.2108 13.6225C20.4538 13.8448 20.7727 13.956 21.1676 13.956C21.7143 13.956 22.1092 13.7115 22.3522 13.2224H27.7055C27.5232 14.1116 27.136 14.9119 26.5437 15.6234C25.9666 16.32 25.2301 16.8758 24.334 17.2908C23.4532 17.691 22.4812 17.891 21.4181 17.891C20.1425 17.891 19.0034 17.6317 18.0011 17.1129C17.014 16.5942 16.2394 15.8531 15.6775 14.8897C15.1308 13.9115 14.8574 12.7703 14.8574 11.466C14.8574 10.1617 15.1308 9.02792 15.6775 8.06455C16.2394 7.08634 17.014 6.33785 18.0011 5.81913C19.0034 5.30039 20.1425 5.04102 21.4181 5.04102C22.6938 5.04102 23.8253 5.30039 24.8124 5.81913C25.8147 6.32308 26.5893 7.04929 27.136 7.99783C27.6979 8.94643 27.9789 10.0654 27.9789 11.3549ZM22.8533 10.31C22.8533 9.83569 22.7166 9.48736 22.4432 9.26509C22.1699 9.02792 21.8282 8.90937 21.4181 8.90937C20.4917 8.90937 19.9602 9.37625 19.8236 10.31H22.8533Z" fill="#6A9586"/>
<path d="M35.4553 5.04102C37.1258 5.04102 38.5306 5.50047 39.6696 6.41941C40.8238 7.33828 41.5527 8.61293 41.8565 10.2433H36.5031C36.3057 9.59114 35.9185 9.26509 35.3413 9.26509C34.9313 9.26509 34.6047 9.45036 34.3618 9.82085C34.134 10.1914 34.0201 10.7398 34.0201 11.466C34.0201 12.1923 34.134 12.7406 34.3618 13.1112C34.6047 13.4817 34.9313 13.667 35.3413 13.667C35.9185 13.667 36.3057 13.3409 36.5031 12.6888H41.8565C41.5527 14.3191 40.8238 15.5938 39.6696 16.5126C38.5306 17.4316 37.1258 17.891 35.4553 17.891C34.1795 17.891 33.0405 17.6317 32.0382 17.1129C31.051 16.5942 30.2765 15.8531 29.7146 14.8897C29.1679 13.9115 28.8945 12.7703 28.8945 11.466C28.8945 10.1617 29.1679 9.02792 29.7146 8.06455C30.2765 7.08634 31.051 6.33785 32.0382 5.81913C33.0405 5.30039 34.1795 5.04102 35.4553 5.04102Z" fill="#6A9586"/>
<path d="M52.4591 5.10708C53.9322 5.10708 55.0789 5.58877 55.8989 6.55217C56.7342 7.51554 57.1519 8.8198 57.1519 10.4649V17.7348H52.1174V11.0874C52.1174 10.4946 51.9504 10.0277 51.6162 9.68684C51.2973 9.33112 50.8645 9.15329 50.3178 9.15329C49.7559 9.15329 49.3154 9.33112 48.9966 9.68684C48.6776 10.0277 48.5182 10.4946 48.5182 11.0874V17.7348H43.4609V1.2832H48.5182V7.10793C48.913 6.51511 49.437 6.03341 50.09 5.66288C50.7582 5.29235 51.5479 5.10708 52.4591 5.10708Z" fill="#6A9586"/>
<path d="M66.7484 4.30879C66.4751 4.27914 66.2852 4.26432 66.1789 4.26432C65.7992 4.26432 65.5107 4.33842 65.3133 4.48664C65.1158 4.62003 64.9791 4.85717 64.9032 5.19806H66.7484V9.31095H64.8576V17.7368H59.8004V9.31095H58.4336V5.19806H59.8004C59.8308 3.56772 60.3548 2.30792 61.3723 1.41864C62.405 0.514548 63.8477 0.0625 65.7005 0.0625C65.9131 0.0625 66.2624 0.0773208 66.7484 0.106962V4.30879Z" fill="#6A9586"/>
<path d="M73.1668 1.2832V17.7348H68.1094V1.2832H73.1668Z" fill="#6A9586"/>
<path d="M89.0505 5.19727V17.736H83.9931V15.8241C83.5981 16.4169 83.0664 16.8986 82.3986 17.2691C81.7455 17.6397 80.9632 17.825 80.0518 17.825C78.5788 17.825 77.4245 17.3432 76.5894 16.3799C75.7696 15.4165 75.3594 14.1122 75.3594 12.4671V5.19727H80.394V11.8446C80.394 12.4374 80.553 12.9117 80.8722 13.2674C81.2061 13.6083 81.6469 13.7787 82.1932 13.7787C82.7554 13.7787 83.1955 13.6083 83.5148 13.2674C83.8334 12.9117 83.9931 12.4374 83.9931 11.8446V5.19727H89.0505Z" fill="#6A9586"/>
<path d="M103.772 11.3549C103.772 11.6661 103.734 11.9922 103.658 12.333H95.5711C95.6169 12.9556 95.7607 13.3854 96.0042 13.6225C96.2472 13.8448 96.5658 13.956 96.9608 13.956C97.5077 13.956 97.9021 13.7115 98.145 13.2224H103.499C103.316 14.1116 102.929 14.9119 102.337 15.6234C101.76 16.32 101.023 16.8758 100.127 17.2908C99.2466 17.691 98.2741 17.891 97.2114 17.891C95.9355 17.891 94.7965 17.6317 93.7941 17.1129C92.8071 16.5942 92.0324 15.8531 91.4708 14.8897C90.9239 13.9115 90.6504 12.7703 90.6504 11.466C90.6504 10.1617 90.9239 9.02792 91.4708 8.06455C92.0324 7.08634 92.8071 6.33785 93.7941 5.81913C94.7965 5.30039 95.9355 5.04102 97.2114 5.04102C98.4872 5.04102 99.6186 5.30039 100.606 5.81913C101.608 6.32308 102.383 7.04929 102.929 7.99783C103.491 8.94643 103.772 10.0654 103.772 11.3549ZM98.6462 10.31C98.6462 9.83569 98.5101 9.48736 98.2366 9.26509C97.9631 9.02792 97.6216 8.90937 97.2114 8.90937C96.2847 8.90937 95.7536 9.37625 95.6169 10.31H98.6462Z" fill="#6A9586"/>
<path d="M114.369 5.10938C115.843 5.10938 116.989 5.59107 117.809 6.55446C118.644 7.51784 119.062 8.82209 119.062 10.4672V17.7371H114.028V11.0897C114.028 10.4969 113.86 10.03 113.527 9.68913C113.208 9.33342 112.775 9.15559 112.228 9.15559C111.666 9.15559 111.225 9.33342 110.907 9.68913C110.588 10.03 110.429 10.4969 110.429 11.0897V17.7371H105.371V5.19831H110.429V7.11023C110.824 6.51741 111.348 6.0357 112 5.66517C112.669 5.29464 113.458 5.10938 114.369 5.10938Z" fill="#6A9586"/>
<path d="M127.133 5.04102C128.804 5.04102 130.208 5.50047 131.347 6.41941C132.502 7.33828 133.231 8.61293 133.535 10.2433H128.181C127.984 9.59114 127.596 9.26509 127.019 9.26509C126.609 9.26509 126.283 9.45036 126.04 9.82085C125.812 10.1914 125.698 10.7398 125.698 11.466C125.698 12.1923 125.812 12.7406 126.04 13.1112C126.283 13.4817 126.609 13.667 127.019 13.667C127.596 13.667 127.984 13.3409 128.181 12.6888H133.535C133.231 14.3191 132.502 15.5938 131.347 16.5126C130.208 17.4316 128.804 17.891 127.133 17.891C125.857 17.891 124.718 17.6317 123.716 17.1129C122.729 16.5942 121.954 15.8531 121.393 14.8897C120.846 13.9115 120.572 12.7703 120.572 11.466C120.572 10.1617 120.846 9.02792 121.393 8.06455C121.954 7.08634 122.729 6.33785 123.716 5.81913C124.718 5.30039 125.857 5.04102 127.133 5.04102Z" fill="#6A9586"/>
<path d="M147.576 11.3549C147.576 11.6661 147.538 11.9922 147.463 12.333H139.376C139.421 12.9556 139.565 13.3854 139.808 13.6225C140.051 13.8448 140.371 13.956 140.765 13.956C141.312 13.956 141.707 13.7115 141.95 13.2224H147.303C147.121 14.1116 146.734 14.9119 146.142 15.6234C145.564 16.32 144.828 16.8758 143.931 17.2908C143.051 17.691 142.079 17.891 141.016 17.891C139.74 17.891 138.601 17.6317 137.599 17.1129C136.612 16.5942 135.837 15.8531 135.275 14.8897C134.729 13.9115 134.455 12.7703 134.455 11.466C134.455 10.1617 134.729 9.02792 135.275 8.06455C135.837 7.08634 136.612 6.33785 137.599 5.81913C138.601 5.30039 139.74 5.04102 141.016 5.04102C142.291 5.04102 143.423 5.30039 144.41 5.81913C145.412 6.32308 146.187 7.04929 146.734 7.99783C147.295 8.94643 147.576 10.0654 147.576 11.3549ZM142.451 10.31C142.451 9.83569 142.314 9.48736 142.041 9.26509C141.768 9.02792 141.426 8.90937 141.016 8.90937C140.089 8.90937 139.558 9.37625 139.421 10.31H142.451Z" fill="#6A9586"/>
<path d="M154.233 7.51039C154.749 6.78418 155.379 6.20615 156.123 5.77633C156.868 5.33169 157.642 5.10938 158.447 5.10938V10.3783H157.012C156.055 10.3783 155.349 10.5413 154.893 10.8675C154.453 11.1935 154.233 11.7715 154.233 12.6015V17.7371H149.176V5.19831H154.233V7.51039Z" fill="#6A9586"/>
<path d="M4.39238 4.02189H1.92969V8.01296L13.6275 6.87457V4.02189H9.75237V-0.0175781L4.39238 0.478175V4.02189Z" fill="#6A9586"/>
<path d="M5.93157 16.1203C4.25751 14.1835 4.39238 12.3956 4.39238 8.72352L9.75237 8.20941C9.73426 9.40901 9.72702 8.66201 9.77048 11.1444C9.81394 13.6269 12.2875 13.4212 13.7724 13.1458L13.9534 17.6627C9.89723 18.2319 7.344 17.7545 5.93157 16.1203Z" fill="#6A9586"/>
</g>
<path d="M164 4.63477H165.352V11.9556L165.223 13.2515H164V4.63477ZM169.313 10.1605V10.2783C169.313 10.7271 169.262 11.1403 169.161 11.5181C169.064 11.8921 168.914 12.2174 168.712 12.4942C168.514 12.7709 168.267 12.986 167.972 13.1393C167.68 13.2889 167.342 13.3637 166.956 13.3637C166.579 13.3637 166.25 13.2927 165.969 13.1506C165.689 13.0084 165.453 12.8065 165.262 12.5447C165.075 12.2829 164.924 11.9706 164.808 11.6078C164.692 11.2451 164.61 10.8449 164.561 10.4073V10.0315C164.61 9.59015 164.692 9.18998 164.808 8.83095C164.924 8.46818 165.075 8.15589 165.262 7.8941C165.453 7.62857 165.687 7.42474 165.963 7.28262C166.244 7.14051 166.571 7.06945 166.945 7.06945C167.334 7.06945 167.676 7.14425 167.972 7.29384C168.271 7.44344 168.52 7.65662 168.718 7.93337C168.916 8.20638 169.064 8.53176 169.161 8.90949C169.262 9.28722 169.313 9.70422 169.313 10.1605ZM167.961 10.2783V10.1605C167.961 9.88748 167.938 9.63129 167.893 9.39194C167.848 9.14884 167.774 8.93567 167.669 8.75241C167.568 8.56916 167.43 8.42517 167.254 8.32045C167.082 8.21199 166.867 8.15776 166.609 8.15776C166.369 8.15776 166.164 8.1989 165.992 8.28118C165.819 8.36346 165.675 8.47566 165.56 8.61777C165.444 8.75989 165.352 8.92445 165.285 9.11144C165.221 9.29844 165.178 9.50039 165.156 9.71731V10.7327C165.189 11.0132 165.26 11.2712 165.369 11.5069C165.481 11.7387 165.638 11.9257 165.84 12.0678C166.042 12.2062 166.302 12.2754 166.62 12.2754C166.87 12.2754 167.082 12.2249 167.254 12.1239C167.426 12.023 167.562 11.8827 167.663 11.7032C167.768 11.5199 167.843 11.3068 167.888 11.0637C167.936 10.8206 167.961 10.5588 167.961 10.2783Z" fill="#212121"/>
<path d="M173.133 13.3637C172.684 13.3637 172.278 13.2908 171.916 13.1449C171.556 12.9953 171.25 12.7878 170.996 12.5222C170.745 12.2567 170.552 11.9444 170.418 11.5854C170.283 11.2264 170.216 10.8393 170.216 10.4242V10.1998C170.216 9.72479 170.285 9.2947 170.423 8.90949C170.562 8.52428 170.754 8.19516 171.001 7.92215C171.248 7.6454 171.54 7.43409 171.876 7.28823C172.213 7.14238 172.577 7.06945 172.97 7.06945C173.404 7.06945 173.784 7.14238 174.109 7.28823C174.434 7.43409 174.704 7.63979 174.917 7.90532C175.134 8.16711 175.295 8.4794 175.399 8.84217C175.508 9.20494 175.562 9.60511 175.562 10.0427V10.6205H170.872V9.64999H174.227V9.5434C174.219 9.30031 174.171 9.07217 174.081 8.859C173.995 8.64582 173.862 8.47379 173.683 8.34289C173.503 8.21199 173.264 8.14655 172.965 8.14655C172.74 8.14655 172.54 8.19516 172.364 8.2924C172.192 8.3859 172.048 8.52241 171.932 8.70192C171.816 8.88144 171.727 9.09835 171.663 9.35267C171.603 9.60324 171.573 9.88561 171.573 10.1998V10.4242C171.573 10.6897 171.609 10.9365 171.68 11.1647C171.755 11.3891 171.863 11.5854 172.005 11.7537C172.147 11.922 172.319 12.0548 172.521 12.152C172.723 12.2455 172.953 12.2922 173.211 12.2922C173.537 12.2922 173.827 12.2268 174.081 12.0959C174.335 11.965 174.556 11.7799 174.743 11.5405L175.455 12.2305C175.324 12.4213 175.154 12.6045 174.945 12.7803C174.735 12.9523 174.479 13.0926 174.176 13.201C173.877 13.3095 173.529 13.3637 173.133 13.3637Z" fill="#212121"/>
<path d="M179.399 7.18165V8.16898H175.977V7.18165H179.399ZM176.964 5.69503H178.316V11.5742C178.316 11.7612 178.343 11.9052 178.395 12.0061C178.451 12.1034 178.528 12.1688 178.625 12.2025C178.722 12.2361 178.836 12.253 178.967 12.253C179.061 12.253 179.15 12.2474 179.236 12.2361C179.322 12.2249 179.392 12.2137 179.444 12.2025L179.45 13.2347C179.337 13.2684 179.206 13.2983 179.057 13.3245C178.911 13.3506 178.743 13.3637 178.552 13.3637C178.242 13.3637 177.967 13.3095 177.727 13.201C177.488 13.0888 177.301 12.9075 177.166 12.6569C177.032 12.4063 176.964 12.0735 176.964 11.6583V5.69503Z" fill="#212121"/>
<path d="M183.865 12.0342V9.13949C183.865 8.92258 183.825 8.73558 183.747 8.57851C183.668 8.42143 183.549 8.29988 183.388 8.21386C183.231 8.12785 183.032 8.08484 182.793 8.08484C182.572 8.08484 182.382 8.12224 182.221 8.19703C182.06 8.27183 181.935 8.37281 181.845 8.49997C181.755 8.62712 181.71 8.77111 181.71 8.93193H180.364C180.364 8.69257 180.422 8.4607 180.538 8.2363C180.654 8.01191 180.822 7.81182 181.043 7.63605C181.263 7.46027 181.527 7.32189 181.834 7.22092C182.14 7.11994 182.485 7.06945 182.866 7.06945C183.322 7.06945 183.726 7.14612 184.078 7.29945C184.433 7.45279 184.712 7.68467 184.914 7.99508C185.119 8.30175 185.222 8.68696 185.222 9.15071V11.8491C185.222 12.1258 185.241 12.3745 185.278 12.5952C185.319 12.8121 185.377 13.001 185.452 13.1618V13.2515H184.067C184.003 13.1057 183.952 12.9205 183.915 12.6962C183.881 12.468 183.865 12.2474 183.865 12.0342ZM184.061 9.56023L184.072 10.3961H183.102C182.851 10.3961 182.63 10.4204 182.44 10.469C182.249 10.5139 182.09 10.5812 181.963 10.671C181.836 10.7607 181.74 10.8692 181.677 10.9964C181.613 11.1235 181.581 11.2675 181.581 11.4283C181.581 11.5891 181.619 11.7369 181.694 11.8715C181.768 12.0024 181.877 12.1052 182.019 12.18C182.165 12.2548 182.341 12.2922 182.546 12.2922C182.823 12.2922 183.064 12.2361 183.27 12.1239C183.479 12.008 183.644 11.8678 183.764 11.7032C183.883 11.5349 183.947 11.376 183.954 11.2264L184.392 11.8266C184.347 11.98 184.27 12.1445 184.162 12.3203C184.053 12.4961 183.911 12.6644 183.736 12.8252C183.563 12.9823 183.356 13.1113 183.113 13.2123C182.873 13.3132 182.597 13.3637 182.283 13.3637C181.886 13.3637 181.533 13.2852 181.222 13.1281C180.912 12.9673 180.669 12.7522 180.493 12.483C180.317 12.21 180.229 11.9014 180.229 11.5573C180.229 11.2357 180.289 10.9515 180.409 10.7046C180.532 10.4541 180.712 10.2446 180.947 10.0763C181.187 9.90804 181.478 9.78089 181.823 9.69487C182.167 9.60511 182.559 9.56023 183.001 9.56023H184.061Z" fill="#212121"/>
<defs>
<clipPath id="clip0_14465_70449">
<rect width="159" height="18" fill="white"/>
</clipPath>
</defs>
</svg>
