<svg width="16" height="16" viewBox="0 0 16 16" fill="none" xmlns="http://www.w3.org/2000/svg">
<path d="M8.80003 0C8.42323 0 8.10855 0.288063 8.07815 0.664062L8.06565 0.815625C8.06345 0.842007 8.07441 0.864784 8.07503 0.890625C7.44809 1.03641 6.89567 1.36458 6.47033 1.81875C6.44799 1.80512 6.43367 1.78328 6.4094 1.77188L6.27346 1.70781C5.93266 1.54701 5.52476 1.6736 5.33595 2C5.14715 2.3264 5.24042 2.74185 5.55002 2.95625L5.67502 3.04375C5.69897 3.06034 5.72652 3.06323 5.75158 3.07656C5.66241 3.37073 5.60002 3.67673 5.60002 4C5.60002 4.32327 5.66241 4.62927 5.75158 4.92344C5.72652 4.93676 5.69897 4.93966 5.67502 4.95625L5.55002 5.04219C5.24042 5.25739 5.14715 5.6736 5.33595 6C5.52476 6.3264 5.93266 6.45299 6.27346 6.29219L6.4094 6.22813C6.43359 6.21671 6.44805 6.19487 6.47033 6.18125C6.89534 6.63506 7.44713 6.96342 8.07346 7.10938C8.07281 7.13522 8.06194 7.15799 8.06409 7.18438L8.07815 7.33594C8.10935 7.71194 8.42323 8 8.80003 8C9.17683 8 9.4915 7.71194 9.5219 7.33594L9.5344 7.18438C9.5366 7.15799 9.52564 7.13522 9.52503 7.10938C10.152 6.96359 10.7044 6.63542 11.1297 6.18125C11.1521 6.19493 11.1664 6.21667 11.1907 6.22813L11.3266 6.29375C11.6674 6.45455 12.0753 6.32796 12.2641 6.00156C12.4529 5.67516 12.3596 5.25895 12.05 5.04375L11.925 4.95625C11.9011 4.93966 11.8735 4.93677 11.8485 4.92344C11.9376 4.62927 12 4.32327 12 4C12 3.67673 11.9376 3.37073 11.8485 3.07656C11.8735 3.06324 11.9011 3.06034 11.925 3.04375L12.05 2.95781C12.3596 2.74261 12.4529 2.3264 12.2641 2C12.0753 1.6736 11.6674 1.54701 11.3266 1.70781L11.1907 1.77188C11.1665 1.78329 11.152 1.80513 11.1297 1.81875C10.7047 1.36494 10.1529 1.03658 9.52659 0.890625C9.52724 0.864784 9.53812 0.842007 9.53597 0.815625L9.5219 0.664062C9.4907 0.288063 9.17683 0 8.80003 0ZM8.80003 2.8C9.46243 2.8 10 3.3376 10 4C10 4.6624 9.46243 5.2 8.80003 5.2C8.13763 5.2 7.60002 4.6624 7.60002 4C7.60002 3.3376 8.13763 2.8 8.80003 2.8ZM14.8688 8C14.5792 8 14.2896 8.11045 14.0688 8.33125L10.4 12H7.20002C6.97922 12 6.80002 11.8208 6.80002 11.6C6.80002 11.3792 6.97922 11.2 7.20002 11.2H9.20003C9.86003 11.2 10.4 10.66 10.4 10C10.4 9.34 9.86003 8.8 9.20003 8.8H5.32502C4.47701 8.8 3.66407 9.1375 3.06407 9.7375L0 12.8L3.20001 16L4.80001 14.4H10.5375C10.9615 14.4 11.3688 14.2312 11.6688 13.9313L15.6688 9.93125C16.1104 9.48965 16.1104 8.77285 15.6688 8.33125C15.448 8.11045 15.1584 8 14.8688 8Z" fill="#99A29C"/>
</svg>
