<svg width="14" height="13" viewBox="0 0 14 13" fill="none" xmlns="http://www.w3.org/2000/svg">
<path d="M7.45525 0.0429688C9.12577 0.0429688 10.5306 0.502428 11.6696 1.42137C12.8238 2.34023 13.5527 3.61488 13.8565 5.24525H8.50313C8.30571 4.59309 7.91845 4.26704 7.34135 4.26704C6.93125 4.26704 6.60473 4.45232 6.36178 4.82281C6.13396 5.19336 6.02006 5.74174 6.02006 6.46795C6.02006 7.19421 6.13396 7.74259 6.36178 8.11314C6.60473 8.48363 6.93125 8.66891 7.34135 8.66891C7.91845 8.66891 8.30571 8.34286 8.50313 7.6907H13.8565C13.5527 9.32107 12.8238 10.5957 11.6696 11.5146C10.5306 12.4335 9.12577 12.893 7.45525 12.893C6.1795 12.893 5.04049 12.6336 4.03822 12.1149C3.05102 11.5961 2.2765 10.855 1.71459 9.89167C1.16789 8.91346 0.894531 7.77226 0.894531 6.46795C0.894531 5.16369 1.16789 4.02988 1.71459 3.0665C2.2765 2.0883 3.05102 1.33981 4.03822 0.821084C5.04049 0.302343 6.1795 0.0429688 7.45525 0.0429688Z" fill="#707FDA"/>
</svg>
