<svg width="15" height="17" viewBox="0 0 15 17" fill="none" xmlns="http://www.w3.org/2000/svg">
<path d="M9.45913 4.10903C10.9322 4.10903 12.0789 4.59073 12.8989 5.55412C13.7342 6.5175 14.1519 7.82175 14.1519 9.46689V16.7367H9.11741V10.0894C9.11741 9.49656 8.95039 9.02967 8.61624 8.68879C8.29735 8.33307 7.86449 8.15525 7.31778 8.15525C6.75588 8.15525 6.31545 8.33307 5.99656 8.68879C5.6776 9.02967 5.51815 9.49656 5.51815 10.0894V16.7367H0.460938V0.285156H5.51815V6.10989C5.91298 5.51707 6.43699 5.03536 7.08997 4.66483C7.75821 4.2943 8.54793 4.10903 9.45913 4.10903Z" fill="#707FDA"/>
</svg>
