<svg width="14" height="13" viewBox="0 0 14 13" fill="none" xmlns="http://www.w3.org/2000/svg">
<path d="M7.13325 0.0429688C8.80402 0.0429688 10.2083 0.502428 11.3474 1.42137C12.5017 2.34023 13.2306 3.61488 13.5346 5.24525H8.18137C7.98358 4.59309 7.59625 4.26704 7.0194 4.26704C6.60918 4.26704 6.28291 4.45232 6.03996 4.82281C5.81227 5.19336 5.69779 5.74174 5.69779 6.46795C5.69779 7.19421 5.81227 7.74259 6.03996 8.11314C6.28291 8.48363 6.60918 8.66891 7.0194 8.66891C7.59625 8.66891 7.98358 8.34286 8.18137 7.6907H13.5346C13.2306 9.32107 12.5017 10.5957 11.3474 11.5146C10.2083 12.4335 8.80402 12.893 7.13325 12.893C5.85743 12.893 4.71835 12.6336 3.71602 12.1149C2.72895 11.5961 1.9543 10.855 1.39271 9.89167C0.845751 8.91346 0.572266 7.77226 0.572266 6.46795C0.572266 5.16369 0.845751 4.02988 1.39271 3.0665C1.9543 2.0883 2.72895 1.33981 3.71602 0.821084C4.71835 0.302343 5.85743 0.0429688 7.13325 0.0429688Z" fill="#707FDA"/>
</svg>
