<svg width="27" height="28" viewBox="0 0 27 28" fill="none" xmlns="http://www.w3.org/2000/svg">
<path d="M14.8327 0.667969C14.2047 0.667969 13.6802 1.14807 13.6296 1.77474L13.6087 2.02734C13.6051 2.07131 13.6233 2.10928 13.6243 2.15234C12.5795 2.39532 11.6588 2.94228 10.9499 3.69922C10.9126 3.6765 10.8888 3.64009 10.8483 3.62109L10.6217 3.51432C10.0537 3.24632 9.37391 3.4573 9.05924 4.0013C8.74458 4.5453 8.90001 5.23772 9.41601 5.59505L9.62435 5.74089C9.66427 5.76854 9.71019 5.77336 9.75195 5.79557C9.60334 6.28585 9.49935 6.79585 9.49935 7.33463C9.49935 7.87342 9.60334 8.38342 9.75195 8.8737C9.71019 8.8959 9.66427 8.90073 9.62435 8.92838L9.41601 9.07161C8.90001 9.43028 8.74458 10.124 9.05924 10.668C9.37391 11.212 10.0537 11.4229 10.6217 11.1549L10.8483 11.0482C10.8886 11.0291 10.9127 10.9928 10.9499 10.9701C11.6582 11.7264 12.5779 12.2737 13.6217 12.5169C13.6207 12.56 13.6025 12.598 13.6061 12.6419L13.6296 12.8945C13.6816 13.5212 14.2047 14.0013 14.8327 14.0013C15.4607 14.0013 15.9851 13.5212 16.0358 12.8945L16.0566 12.6419C16.0603 12.598 16.042 12.56 16.041 12.5169C17.0859 12.274 18.0066 11.727 18.7155 10.9701C18.7527 10.9928 18.7766 11.0291 18.8171 11.0482L19.0436 11.1576C19.6116 11.4256 20.2915 11.2146 20.6061 10.6706C20.9208 10.1266 20.7653 9.43289 20.2493 9.07422L20.041 8.92838C20.0011 8.90073 19.9552 8.89591 19.9134 8.8737C20.062 8.38342 20.166 7.87342 20.166 7.33463C20.166 6.79585 20.062 6.28585 19.9134 5.79557C19.9552 5.77337 20.0011 5.76854 20.041 5.74089L20.2493 5.59766C20.7653 5.23899 20.9208 4.5453 20.6061 4.0013C20.2915 3.4573 19.6116 3.24632 19.0436 3.51432L18.8171 3.62109C18.7767 3.64012 18.7526 3.67652 18.7155 3.69922C18.0072 2.94287 17.0875 2.39561 16.0436 2.15234C16.0447 2.10928 16.0628 2.07131 16.0592 2.02734L16.0358 1.77474C15.9838 1.14807 15.4607 0.667969 14.8327 0.667969ZM14.8327 5.33464C15.9367 5.33464 16.8327 6.23064 16.8327 7.33463C16.8327 8.43863 15.9367 9.33463 14.8327 9.33463C13.7287 9.33463 12.8327 8.43863 12.8327 7.33463C12.8327 6.23064 13.7287 5.33464 14.8327 5.33464ZM24.9473 14.0013C24.4646 14.0013 23.9819 14.1854 23.6139 14.5534L17.4993 20.668H12.166C11.798 20.668 11.4993 20.3693 11.4993 20.0013C11.4993 19.6333 11.798 19.3346 12.166 19.3346H14.8327C16.306 19.3346 17.4993 18.1413 17.4993 16.668V15.3346H9.04101C7.62635 15.3346 6.27018 15.8958 5.27018 16.8971L0.166016 22.0013L5.49935 27.3346L8.16602 24.668H17.7285C18.4352 24.668 19.1139 24.3867 19.6139 23.8867L26.2806 17.22C27.0166 16.484 27.0166 15.2894 26.2806 14.5534C25.9126 14.1854 25.4299 14.0013 24.9473 14.0013Z" fill="#707FDA"/>
</svg>
