<svg width="24" height="27" viewBox="0 0 24 27" fill="none" xmlns="http://www.w3.org/2000/svg">
<path d="M12 0.332031C9.07027 0.332031 6.66667 2.73564 6.66667 5.66536C6.66667 6.6396 6.95152 7.54319 7.41406 8.33203H4C3.264 8.33203 2.66667 7.73336 2.66667 6.9987C2.66667 6.26403 3.264 5.66536 4 5.66536C4 4.72936 4.17015 3.83336 4.46615 2.9987H4C1.79467 2.9987 0 4.79336 0 6.9987V24.332C0 25.8027 1.196 26.9987 2.66667 26.9987H21.3333C22.804 26.9987 24 25.8027 24 24.332V10.9987C24 9.9115 23.3439 8.97857 22.4089 8.5638C22.563 8.06519 22.6667 7.54481 22.6667 6.9987C22.6667 4.06892 20.2631 1.66536 17.3333 1.66536C16.791 1.66536 16.268 1.7553 15.7708 1.90755C14.8032 0.936566 13.4682 0.332031 12 0.332031ZM12 2.9987C13.4886 2.9987 14.6667 4.17681 14.6667 5.66536C14.6667 7.15392 13.4886 8.33203 12 8.33203C10.5114 8.33203 9.33333 7.15392 9.33333 5.66536C9.33333 4.17681 10.5114 2.9987 12 2.9987ZM17.3333 4.33203C18.8222 4.33203 20 5.50981 20 6.9987C20 7.48914 19.8649 7.94051 19.638 8.33203H16.5859C17.0485 7.54319 17.3333 6.6396 17.3333 5.66536C17.3333 5.21134 17.2569 4.77723 17.1484 4.35547C17.2116 4.35112 17.2687 4.33203 17.3333 4.33203ZM18.6667 16.332C19.4027 16.332 20 16.9294 20 17.6654C20 18.4014 19.4027 18.9987 18.6667 18.9987C17.9307 18.9987 17.3333 18.4014 17.3333 17.6654C17.3333 16.9294 17.9307 16.332 18.6667 16.332Z" fill="#707FDA"/>
</svg>
