<svg width="16" height="15" viewBox="0 0 16 15" fill="none" xmlns="http://www.w3.org/2000/svg">
<path d="M7.51751 0.332031C7.29885 0.332031 7.094 0.439792 6.96934 0.619792L3.9446 4.9987H0.83392C0.625254 4.9987 0.429337 5.09572 0.30267 5.26172C0.177337 5.42705 0.134722 5.64178 0.189389 5.84245L1.89642 12.0195C2.05575 12.5955 2.58424 12.9987 3.18158 12.9987H9.76751L8.89121 9.54037C8.74721 8.9737 8.86982 8.38511 9.22715 7.92578C9.58248 7.46845 10.1388 7.19661 10.7141 7.19661C11.0348 7.19661 11.3533 7.28014 11.636 7.4388L14.0006 8.76823L14.8079 5.84375C14.8632 5.64308 14.8212 5.42705 14.6959 5.26172C14.5692 5.09572 14.3726 4.9987 14.1646 4.9987H11.0592L8.06829 0.622396C7.94429 0.441062 7.73945 0.332698 7.52012 0.332031H7.51751ZM7.51491 2.17578L9.44329 4.9987H5.56439L7.51491 2.17578ZM10.6646 8.53125C10.3534 8.56091 10.0957 8.86224 10.1842 9.21224L11.3808 13.9362C11.4808 14.3302 12.0109 14.4009 12.2102 14.0469L12.8535 12.9062L14.291 14.7487C14.5143 15.0414 14.9332 15.097 15.2258 14.8737C15.5185 14.6504 15.5742 14.2315 15.3508 13.9388L13.9368 12.1276L15.1321 11.8255C15.5261 11.7262 15.5974 11.1955 15.2428 10.9948L10.9824 8.60026C10.8775 8.54143 10.7684 8.52137 10.6646 8.53125Z" fill="#9397B2"/>
</svg>
