<svg width="22" height="10" viewBox="0 0 22 10" fill="none" xmlns="http://www.w3.org/2000/svg">
<path d="M0 0.636719H1.35198V7.9576L1.22295 9.25348H0V0.636719ZM5.31255 6.16244V6.28025C5.31255 6.72904 5.26206 7.1423 5.16108 7.52003C5.06384 7.89402 4.91425 8.2194 4.71229 8.49615C4.51408 8.7729 4.26724 8.98795 3.97179 9.14128C3.68008 9.29088 3.34161 9.36568 2.9564 9.36568C2.57867 9.36568 2.24956 9.29462 1.96906 9.1525C1.68857 9.01039 1.45296 8.80843 1.26222 8.54664C1.07523 8.28484 0.923759 7.97256 0.807822 7.60979C0.691884 7.24702 0.609606 6.84685 0.560987 6.40928V6.03342C0.609606 5.59211 0.691884 5.19193 0.807822 4.8329C0.923759 4.47013 1.07523 4.15785 1.26222 3.89605C1.45296 3.63052 1.6867 3.42669 1.96346 3.28458C2.24395 3.14246 2.57119 3.0714 2.94518 3.0714C3.33413 3.0714 3.67634 3.1462 3.97179 3.2958C4.27098 3.44539 4.51969 3.65857 4.7179 3.93532C4.91612 4.20834 5.06384 4.53371 5.16108 4.91144C5.26206 5.28917 5.31255 5.70617 5.31255 6.16244ZM3.96057 6.28025V6.16244C3.96057 5.88943 3.93813 5.63324 3.89325 5.39389C3.84837 5.1508 3.77357 4.93762 3.66886 4.75436C3.56788 4.57111 3.4295 4.42712 3.25373 4.3224C3.08169 4.21395 2.86664 4.15972 2.60859 4.15972C2.36924 4.15972 2.16354 4.20086 1.9915 4.28314C1.81947 4.36541 1.67548 4.47761 1.55954 4.61973C1.44361 4.76184 1.35198 4.9264 1.28466 5.1134C1.22108 5.30039 1.17807 5.50235 1.15563 5.71926V6.73465C1.18929 7.01514 1.26035 7.2732 1.36881 7.50881C1.48101 7.74069 1.63808 7.92768 1.84004 8.0698C2.04199 8.20818 2.30192 8.27736 2.61981 8.27736C2.87038 8.27736 3.08169 8.22688 3.25373 8.1259C3.42576 8.02492 3.56227 7.88467 3.66325 7.70516C3.76796 7.5219 3.84276 7.30873 3.88764 7.06563C3.93626 6.82254 3.96057 6.56074 3.96057 6.28025Z" fill="#212121"/>
<path d="M9.13287 9.36568C8.68408 9.36568 8.2783 9.29275 7.91553 9.14689C7.5565 8.9973 7.24982 8.78973 6.99551 8.5242C6.74494 8.25866 6.55233 7.94638 6.41769 7.58735C6.28306 7.22832 6.21574 6.84124 6.21574 6.42611V6.20171C6.21574 5.72674 6.28493 5.29665 6.4233 4.91144C6.56168 4.52623 6.75429 4.19712 7.00112 3.9241C7.24795 3.64735 7.53967 3.43604 7.87626 3.29019C8.21285 3.14433 8.57749 3.0714 8.97018 3.0714C9.40401 3.0714 9.78362 3.14433 10.109 3.29019C10.4344 3.43604 10.7036 3.64174 10.9168 3.90727C11.1337 4.16907 11.2945 4.48135 11.3993 4.84412C11.5077 5.20689 11.5619 5.60707 11.5619 6.04463V6.62245H6.87209V5.65194H10.2268V5.54536C10.2193 5.30226 10.1707 5.07413 10.0809 4.86095C9.99492 4.64778 9.86215 4.47574 9.68264 4.34484C9.50312 4.21395 9.26377 4.1485 8.96457 4.1485C8.74018 4.1485 8.54009 4.19712 8.36432 4.29436C8.19228 4.38785 8.0483 4.52436 7.93236 4.70388C7.81642 4.88339 7.72666 5.10031 7.66308 5.35462C7.60325 5.6052 7.57333 5.88756 7.57333 6.20171V6.42611C7.57333 6.69164 7.60886 6.93847 7.67991 7.16661C7.75471 7.391 7.86317 7.58735 8.00529 7.75565C8.1474 7.92394 8.31944 8.05671 8.52139 8.15395C8.72335 8.24744 8.95335 8.29419 9.21141 8.29419C9.53678 8.29419 9.82662 8.22874 10.0809 8.09785C10.3353 7.96695 10.5559 7.78183 10.7429 7.54247L11.4554 8.23248C11.3245 8.42322 11.1543 8.60648 10.9449 8.78225C10.7354 8.95429 10.4792 9.09453 10.1763 9.20299C9.87711 9.31145 9.5293 9.36568 9.13287 9.36568Z" fill="#212121"/>
<path d="M15.3991 3.1836V4.17094H11.9771V3.1836H15.3991ZM12.9644 1.69698H14.3164V7.57613C14.3164 7.76313 14.3426 7.90711 14.3949 8.00809C14.451 8.10533 14.5277 8.17078 14.6249 8.20444C14.7222 8.23809 14.8362 8.25492 14.9671 8.25492C15.0606 8.25492 15.1504 8.24931 15.2364 8.23809C15.3224 8.22688 15.3916 8.21566 15.444 8.20444L15.4496 9.23665C15.3374 9.27031 15.2065 9.30023 15.0569 9.32641C14.911 9.35259 14.7427 9.36568 14.552 9.36568C14.2416 9.36568 13.9667 9.31145 13.7274 9.20299C13.488 9.0908 13.301 8.90941 13.1664 8.65884C13.0317 8.40826 12.9644 8.07541 12.9644 7.66028V1.69698Z" fill="#212121"/>
<path d="M19.8646 8.03614V5.14145C19.8646 4.92453 19.8253 4.73753 19.7467 4.58046C19.6682 4.42338 19.5485 4.30183 19.3877 4.21582C19.2306 4.1298 19.0324 4.08679 18.7931 4.08679C18.5724 4.08679 18.3817 4.12419 18.2209 4.19899C18.06 4.27379 17.9348 4.37476 17.845 4.50192C17.7552 4.62908 17.7104 4.77306 17.7104 4.93388H16.364C16.364 4.69453 16.422 4.46265 16.5379 4.23826C16.6538 4.01386 16.8221 3.81378 17.0428 3.638C17.2634 3.46222 17.5271 3.32385 17.8338 3.22287C18.1405 3.12189 18.4845 3.0714 18.866 3.0714C19.3223 3.0714 19.7262 3.14807 20.0777 3.30141C20.433 3.45474 20.7116 3.68662 20.9136 3.99703C21.1193 4.3037 21.2221 4.68892 21.2221 5.15267V7.85101C21.2221 8.12777 21.2408 8.37647 21.2782 8.59713C21.3194 8.81404 21.3774 9.00291 21.4521 9.16372V9.25348H20.0665C20.0029 9.10763 19.9524 8.9225 19.915 8.6981C19.8814 8.46997 19.8646 8.24931 19.8646 8.03614ZM20.0609 5.56219L20.0721 6.39806H19.1016C18.851 6.39806 18.6304 6.42237 18.4396 6.47099C18.2489 6.51586 18.09 6.58318 17.9628 6.67294C17.8357 6.7627 17.7403 6.87116 17.6767 6.99831C17.6131 7.12547 17.5813 7.26946 17.5813 7.43027C17.5813 7.59109 17.6187 7.73882 17.6935 7.87345C17.7683 8.00435 17.8768 8.1072 18.0189 8.182C18.1648 8.25679 18.3405 8.29419 18.5462 8.29419C18.823 8.29419 19.0642 8.23809 19.2699 8.1259C19.4793 8.00996 19.6439 7.86971 19.7636 7.70516C19.8833 7.53686 19.9468 7.37791 19.9543 7.22832L20.3919 7.82857C20.347 7.98191 20.2703 8.14647 20.1619 8.32224C20.0534 8.49802 19.9113 8.66632 19.7355 8.82713C19.5635 8.98421 19.3559 9.11323 19.1128 9.21421C18.8735 9.31519 18.5967 9.36568 18.2826 9.36568C17.8861 9.36568 17.5327 9.28714 17.2223 9.13006C16.9119 8.96925 16.6688 8.7542 16.493 8.48493C16.3172 8.21192 16.2294 7.90337 16.2294 7.5593C16.2294 7.23767 16.2892 6.95343 16.4089 6.7066C16.5323 6.45603 16.7118 6.24659 16.9474 6.07829C17.1868 5.91 17.4785 5.78284 17.8226 5.69682C18.1666 5.60707 18.5593 5.56219 19.0006 5.56219H20.0609Z" fill="#212121"/>
</svg>
