<svg width="12" height="14" viewBox="0 0 12 14" fill="none" xmlns="http://www.w3.org/2000/svg">
<path d="M2 0.667969V2.0013H1.33333C0.6 2.0013 0 2.6013 0 3.33464V12.668C0 13.4013 0.6 14.0013 1.33333 14.0013H10.6667C11.4 14.0013 12 13.4013 12 12.668V3.33464C12 2.6013 11.4 2.0013 10.6667 2.0013H10V0.667969H8.66667V2.0013H3.33333V0.667969H2ZM1.33333 5.33464H10.6667V12.668H1.33333V5.33464ZM4.66667 7.33463L2.66667 9.33463L4.66667 11.3346V10.0013H7.33333V11.3346L9.33333 9.33463L7.33333 7.33463V8.66797H4.66667V7.33463Z" fill="#707FDA"/>
</svg>
