<?xml version="1.0" encoding="UTF-8"?>
<!DOCTYPE svg PUBLIC "-//W3C//DTD SVG 1.1//EN" "http://www.w3.org/Graphics/SVG/1.1/DTD/svg11.dtd">
<svg xmlns="http://www.w3.org/2000/svg" version="1.1" width="139px" height="137px" style="shape-rendering:geometricPrecision; text-rendering:geometricPrecision; image-rendering:optimizeQuality; fill-rule:evenodd; clip-rule:evenodd" xmlns:xlink="http://www.w3.org/1999/xlink">
<g><path style="opacity:1" fill="#4daf51" d="M 99.5,12.5 C 100.492,12.3284 101.158,12.6618 101.5,13.5C 101.973,14.9063 102.973,15.573 104.5,15.5C 105.585,17.5869 107.251,18.9202 109.5,19.5C 109.81,21.1436 110.81,22.1436 112.5,22.5C 114.817,26.1464 117.484,29.4797 120.5,32.5C 122.25,36.3346 124.25,40.0012 126.5,43.5C 126.595,45.7857 127.262,47.7857 128.5,49.5C 134.271,76.3516 126.938,98.8516 106.5,117C 85.5365,131.579 63.2031,134.079 39.5,124.5C 38.5084,124.672 37.8417,124.338 37.5,123.5C 37.0269,122.094 36.0269,121.427 34.5,121.5C 34.0269,120.094 33.0269,119.427 31.5,119.5C 30.7377,117.738 29.4044,116.738 27.5,116.5C 27.1667,115.5 26.5,114.833 25.5,114.5C 24.5,112.833 23.1667,111.5 21.5,110.5C 20.8333,109.167 19.8333,108.167 18.5,107.5C 16.1099,105.733 14.4432,103.4 13.5,100.5C 13.573,98.9731 12.9063,97.9731 11.5,97.5C 11.1667,97.5 10.8333,97.5 10.5,97.5C 10.5,96.8333 10.5,96.1667 10.5,95.5C 10.0198,92.5568 9.01977,89.8902 7.5,87.5C 2.4189,70.2742 3.75223,53.6075 11.5,37.5C 33.5661,4.48634 62.8994,-3.84699 99.5,12.5 Z M 43.5,58.5 C 44.5,60.1667 45.8333,61.5 47.5,62.5C 47.5086,64.3084 47.0086,65.9751 46,67.5C 45.6397,65.5789 44.8064,63.9122 43.5,62.5C 40.5499,61.5123 37.5499,60.679 34.5,60C 37.3337,58.0357 40.3337,57.5357 43.5,58.5 Z M 100.5,57.5 C 100.833,57.5 101.167,57.5 101.5,57.5C 101.973,58.9063 102.973,59.573 104.5,59.5C 105.026,61.2303 106.026,62.5637 107.5,63.5C 107.587,66.5983 107.087,66.9316 106,64.5C 104.961,72.7914 101.127,74.7914 94.5,70.5C 93.0966,66.1136 94.43,62.6136 98.5,60C 97.8487,58.692 98.5154,57.8586 100.5,57.5 Z M 73.5,58.5 C 74.1667,59.8333 75.1667,60.8333 76.5,61.5C 76.8333,62.1667 77.1667,62.8333 77.5,63.5C 77.5654,63.9382 77.3988,64.2716 77,64.5C 75.9264,63.3816 74.7598,62.3816 73.5,61.5C 72.3473,60.3132 72.3473,59.3132 73.5,58.5 Z M 94.5,70.5 C 95.087,71.7666 95.087,72.7666 94.5,73.5C 92.7172,72.6518 92.2172,71.3185 93,69.5C 93.3826,70.056 93.8826,70.3893 94.5,70.5 Z M 29.5,70.5 C 30.8366,71.3149 31.8366,72.4815 32.5,74C 36.1862,75.1993 35.8529,75.5326 31.5,75C 29.9632,73.8904 29.2965,72.3904 29.5,70.5 Z"/></g>
<g><path style="opacity:0.008" fill="#ebf6eb" d="M 101.5,13.5 C 103.027,13.427 104.027,14.0937 104.5,15.5C 102.973,15.573 101.973,14.9063 101.5,13.5 Z"/></g>
<g><path style="opacity:0.004" fill="#ebf6eb" d="M 108.5,17.5 C 108.5,18.1667 108.833,18.5 109.5,18.5C 109.5,18.8333 109.5,19.1667 109.5,19.5C 107.251,18.9202 105.585,17.5869 104.5,15.5C 105.117,15.3893 105.617,15.056 106,14.5C 106.377,15.9423 107.21,16.9423 108.5,17.5 Z"/></g>
<g><path style="opacity:0.004" fill="#f1f9f1" d="M 108.5,17.5 C 110.685,16.9131 112.352,17.9131 113.5,20.5C 112.662,20.8417 112.328,21.5084 112.5,22.5C 110.81,22.1436 109.81,21.1436 109.5,19.5C 110.833,19.1667 110.833,18.8333 109.5,18.5C 108.833,18.5 108.5,18.1667 108.5,17.5 Z"/></g>
<g><path style="opacity:0.005" fill="#f9fcf9" d="M 99.5,12.5 C 62.8994,-3.84699 33.5661,4.48634 11.5,37.5C 3.75223,53.6075 2.4189,70.2742 7.5,87.5C 6.44153,86.3998 5.6082,85.0664 5,83.5C 3.33353,84.3402 3.16686,83.8402 4.5,82C 4,81.5 3.5,81 3,80.5C 2.05127,82.0931 0.884606,83.4264 -0.5,84.5C -0.5,71.5 -0.5,58.5 -0.5,45.5C 1.1361,44.2511 2.30276,42.5844 3,40.5C 3.33333,41.5 3.66667,42.5 4,43.5C 5.60826,39.9573 7.94159,36.9573 11,34.5C 11.346,32.7818 11.846,31.1151 12.5,29.5C 18.4523,25.0141 23.7857,19.8475 28.5,14C 34.7246,9.7204 41.3913,6.2204 48.5,3.5C 49.2868,2.75792 49.9535,1.92458 50.5,1C 59.5,0.333333 68.5,0.333333 77.5,1C 82.5852,4.52815 88.2518,6.69482 94.5,7.5C 96.0063,9.40138 97.6729,11.0681 99.5,12.5 Z"/></g>
<g><path style="opacity:0.004" fill="#f5faf5" d="M 113.5,20.5 C 115.797,22.2941 117.963,24.2941 120,26.5C 119.653,28.6099 119.82,30.6099 120.5,32.5C 117.484,29.4797 114.817,26.1464 112.5,22.5C 113.338,22.1583 113.672,21.4916 113.5,20.5 Z"/></g>
<g><path style="opacity:0.016" fill="#eff8ef" d="M 120.5,32.5 C 123.99,35.2619 125.99,38.9285 126.5,43.5C 124.25,40.0012 122.25,36.3346 120.5,32.5 Z"/></g>
<g><path style="opacity:0.005" fill="#fbfdfb" d="M 126.5,43.5 C 127.885,44.6138 129.385,45.6138 131,46.5C 131.532,49.2635 132.366,51.9302 133.5,54.5C 132.595,58.4506 132.595,62.4506 133.5,66.5C 133.519,69.8829 132.853,73.0496 131.5,76C 132.249,86.3198 130.415,96.4864 126,106.5C 121.959,108.677 120.626,112.01 122,116.5C 122.654,115.304 123.154,115.304 123.5,116.5C 123.05,119.714 121.717,122.381 119.5,124.5C 119.038,123.12 118.038,122.453 116.5,122.5C 113.029,122.738 109.363,123.238 105.5,124C 104.672,124.915 103.672,125.581 102.5,126C 102.957,126.414 103.291,126.914 103.5,127.5C 101.155,129.405 98.4881,130.571 95.5,131C 93.1088,132.309 93.1088,133.309 95.5,134C 91.1667,134.333 86.8333,134.667 82.5,135C 81.2625,135.232 80.2625,135.732 79.5,136.5C 72.5,136.5 65.5,136.5 58.5,136.5C 51.3914,134.986 44.0581,134.153 36.5,134C 36.0426,133.586 35.7093,133.086 35.5,132.5C 36.9285,131.065 38.5952,130.065 40.5,129.5C 44.8488,132.294 49.5154,132.96 54.5,131.5C 49.6408,129.58 44.6408,127.246 39.5,124.5C 63.2031,134.079 85.5365,131.579 106.5,117C 126.938,98.8516 134.271,76.3516 128.5,49.5C 127.262,47.7857 126.595,45.7857 126.5,43.5 Z M 128.5,49.5 C 128.56,48.9569 128.893,48.6236 129.5,48.5C 130.583,49.365 130.749,50.365 130,51.5C 129.722,50.5842 129.222,49.9175 128.5,49.5 Z M 91.5,127.5 C 92.552,127.351 93.552,127.517 94.5,128C 91.3056,131.52 87.6389,132.52 83.5,131C 86.3108,130.017 88.9775,128.851 91.5,127.5 Z"/></g>
<g><path style="opacity:0.005" fill="#fafdfa" d="M 43.5,58.5 C 40.3337,57.5357 37.3337,58.0357 34.5,60C 37.5499,60.679 40.5499,61.5123 43.5,62.5C 44.8064,63.9122 45.6397,65.5789 46,67.5C 47.0086,65.9751 47.5086,64.3084 47.5,62.5C 50.2869,71.2497 47.1202,76.583 38,78.5C 28.248,76.6674 24.9147,71.0008 28,61.5C 32.5351,56.2475 37.7018,55.2475 43.5,58.5 Z M 29.5,70.5 C 29.2965,72.3904 29.9632,73.8904 31.5,75C 35.8529,75.5326 36.1862,75.1993 32.5,74C 31.8366,72.4815 30.8366,71.3149 29.5,70.5 Z"/></g>
<g><path style="opacity:0.005" fill="#fbfdfb" d="M 73.5,58.5 C 72.3473,59.3132 72.3473,60.3132 73.5,61.5C 74.7598,62.3816 75.9264,63.3816 77,64.5C 77.3988,64.2716 77.5654,63.9382 77.5,63.5C 79.9454,72.0924 76.612,77.0924 67.5,78.5C 58.2704,77.0163 54.7704,71.6829 57,62.5C 61.325,56.2252 66.825,54.8918 73.5,58.5 Z"/></g>
<g><path style="opacity:0.006" fill="#f8fcf8" d="M 100.5,57.5 C 98.5154,57.8586 97.8487,58.692 98.5,60C 94.43,62.6136 93.0966,66.1136 94.5,70.5C 101.127,74.7914 104.961,72.7914 106,64.5C 107.087,66.9316 107.587,66.5983 107.5,63.5C 108.833,65.5 108.833,67.5 107.5,69.5C 106.493,67.5235 106.493,67.8568 107.5,70.5C 105.062,76.8891 100.395,79.3891 93.5,78C 86.5114,73.8722 84.6781,68.0389 88,60.5C 91.5912,56.6234 95.7579,55.6234 100.5,57.5 Z M 94.5,70.5 C 93.8826,70.3893 93.3826,70.056 93,69.5C 92.2172,71.3185 92.7172,72.6518 94.5,73.5C 95.087,72.7666 95.087,71.7666 94.5,70.5 Z"/></g>
<g><path style="opacity:0.259" fill="#dbefdb" d="M 43.5,58.5 C 45.8333,58.8333 47.1667,60.1667 47.5,62.5C 45.8333,61.5 44.5,60.1667 43.5,58.5 Z"/></g>
<g><path style="opacity:0.447" fill="#d0ead0" d="M 73.5,58.5 C 75.5,58.5 76.5,59.5 76.5,61.5C 75.1667,60.8333 74.1667,59.8333 73.5,58.5 Z"/></g>
<g><path style="opacity:0.031" fill="#ebf6eb" d="M 101.5,57.5 C 103.027,57.427 104.027,58.0937 104.5,59.5C 102.973,59.573 101.973,58.9063 101.5,57.5 Z"/></g>
<g><path style="opacity:0.106" fill="#def0de" d="M 7.5,87.5 C 9.01977,89.8902 10.0198,92.5568 10.5,95.5C 8.4152,93.3155 7.4152,90.6489 7.5,87.5 Z"/></g>
<g><path style="opacity:0.004" fill="#fefffe" d="M 2.5,92.5 C 3.57346,93.2506 3.74012,94.2506 3,95.5C 2.51722,94.552 2.35055,93.552 2.5,92.5 Z"/></g>
<g><path style="opacity:0.004" fill="#fefffe" d="M 5.5,93.5 C 6.78202,94.7082 6.78202,96.0416 5.5,97.5C 4.37437,96.1916 4.37437,94.8583 5.5,93.5 Z"/></g>
<g><path style="opacity:0.004" fill="#fefffe" d="M 10.5,97.5 C 10.3328,100.957 9.33279,101.29 7.5,98.5C 8.32496,97.6143 9.32496,97.281 10.5,97.5 Z"/></g>
<g><path style="opacity:0.004" fill="#e9f5e9" d="M 11.5,97.5 C 12.9063,97.9731 13.573,98.9731 13.5,100.5C 12.0937,100.027 11.427,99.0269 11.5,97.5 Z"/></g>
<g><path style="opacity:0.004" fill="#fefffe" d="M 5.5,103.5 C 6.58617,103.62 7.25284,104.287 7.5,105.5C 7.16667,106.167 6.83333,106.833 6.5,107.5C 5.57131,106.311 5.23798,104.978 5.5,103.5 Z"/></g>
<g><path style="opacity:0.004" fill="#e4f3e4" d="M 18.5,107.5 C 19.8333,108.167 20.8333,109.167 21.5,110.5C 19.5,110.5 18.5,109.5 18.5,107.5 Z"/></g>
<g><path style="opacity:0.004" fill="#fefffe" d="M 124.5,110.5 C 125.833,111.167 125.833,111.167 124.5,110.5 Z"/></g>
<g><path style="opacity:0.004" fill="#fefffe" d="M 7.5,111.5 C 8.83333,112.167 8.83333,112.167 7.5,111.5 Z"/></g>
<g><path style="opacity:0.008" fill="#d4ecd5" d="M 21.5,110.5 C 23.1667,111.5 24.5,112.833 25.5,114.5C 23.1667,114.167 21.8333,112.833 21.5,110.5 Z"/></g>
<g><path style="opacity:0.004" fill="#ecf6ec" d="M 25.5,114.5 C 26.5,114.833 27.1667,115.5 27.5,116.5C 26.1667,116.5 25.5,115.833 25.5,114.5 Z"/></g>
<g><path style="opacity:0.573" fill="#cae7c9" d="M 27.5,116.5 C 29.4044,116.738 30.7377,117.738 31.5,119.5C 29.5956,119.262 28.2623,118.262 27.5,116.5 Z"/></g>
<g><path style="opacity:0.004" fill="#fefffe" d="M 124.5,117.5 C 125.833,118.167 125.833,118.167 124.5,117.5 Z"/></g>
<g><path style="opacity:0.031" fill="#e6f4e6" d="M 31.5,119.5 C 33.0269,119.427 34.0269,120.094 34.5,121.5C 32.9731,121.573 31.9731,120.906 31.5,119.5 Z"/></g>
<g><path style="opacity:0.012" fill="#edf7ed" d="M 34.5,121.5 C 36.0269,121.427 37.0269,122.094 37.5,123.5C 35.9731,123.573 34.9731,122.906 34.5,121.5 Z"/></g>
<g><path style="opacity:0.004" fill="#fefffe" d="M 119.5,124.5 C 118.833,125.167 118.833,125.167 119.5,124.5 Z"/></g>
<g><path style="opacity:0.004" fill="#fefffe" d="M 118.5,125.5 C 117.833,126.167 117.833,126.167 118.5,125.5 Z"/></g>
<g><path style="opacity:0.004" fill="#fefffe" d="M 119.5,128.5 C 120.833,129.167 120.833,129.167 119.5,128.5 Z"/></g>
<g><path style="opacity:0.004" fill="#fefffe" d="M 121.5,129.5 C 123.384,129.712 124.717,130.712 125.5,132.5C 122.216,133.657 118.882,133.824 115.5,133C 116.833,132.333 116.833,131.667 115.5,131C 117.708,130.809 119.708,130.309 121.5,129.5 Z"/></g>
<g><path style="opacity:0.004" fill="#fefffe" d="M 29.5,134.5 C 30.6009,133.402 31.9343,133.235 33.5,134C 32.2068,134.49 30.8734,134.657 29.5,134.5 Z"/></g>
<g><path style="opacity:0.004" fill="#fefffe" d="M 110.5,133.5 C 111.833,134.167 111.833,134.167 110.5,133.5 Z"/></g>
</svg>
