<svg width="19" height="18" viewBox="0 0 19 18" fill="none" xmlns="http://www.w3.org/2000/svg">
<path d="M0.699219 0.999219C0.699219 0.557392 1.05739 0.199219 1.49922 0.199219H7.89922C8.34105 0.199219 8.69922 0.557392 8.69922 0.99922V9.79922C8.69922 10.241 8.34105 10.5992 7.89922 10.5992H1.49922C1.05739 10.5992 0.699219 10.241 0.699219 9.79922V0.999219Z" fill="#212121"/>
<path d="M18.2992 16.9992C18.2992 17.441 17.941 17.7992 17.4992 17.7992H11.0992C10.6574 17.7992 10.2992 17.441 10.2992 16.9992L10.2992 8.19922C10.2992 7.75739 10.6574 7.39922 11.0992 7.39922L17.4992 7.39922C17.941 7.39922 18.2992 7.75739 18.2992 8.19922L18.2992 16.9992Z" fill="#212121"/>
<path d="M0.699219 12.9992C0.699219 12.5574 1.05739 12.1992 1.49922 12.1992H7.89922C8.34105 12.1992 8.69922 12.5574 8.69922 12.9992V16.9992C8.69922 17.441 8.34105 17.7992 7.89922 17.7992H1.49922C1.05739 17.7992 0.699219 17.441 0.699219 16.9992V12.9992Z" fill="#212121"/>
<path d="M18.2992 4.99922C18.2992 5.44105 17.941 5.79922 17.4992 5.79922L11.0992 5.79922C10.6574 5.79922 10.2992 5.44105 10.2992 4.99922L10.2992 0.999219C10.2992 0.557392 10.6574 0.199219 11.0992 0.199219L17.4992 0.199219C17.941 0.199219 18.2992 0.557391 18.2992 0.999219V4.99922Z" fill="#212121"/>
</svg>
