<svg width="14" height="13" viewBox="0 0 14 13" fill="none" xmlns="http://www.w3.org/2000/svg">
<path d="M13.9789 6.35684C13.9789 6.66806 13.9409 6.9941 13.865 7.33499H5.77796C5.82356 7.95754 5.96781 8.3873 6.21082 8.62447C6.45378 8.8468 6.77273 8.95797 7.16756 8.95797C7.71433 8.95797 8.10916 8.71341 8.35217 8.22431H13.7055C13.5232 9.11357 13.136 9.91389 12.5437 10.6253C11.9666 11.3219 11.2301 11.8778 10.334 12.2927C9.45322 12.6929 8.48122 12.893 7.41814 12.893C6.14245 12.893 5.00344 12.6336 4.00111 12.1149C3.01397 11.5961 2.23945 10.855 1.67754 9.89167C1.13084 8.91346 0.857422 7.77226 0.857422 6.46795C0.857422 5.16369 1.13084 4.02988 1.67754 3.0665C2.23945 2.0883 3.01397 1.33981 4.00111 0.821084C5.00344 0.302343 6.14245 0.0429688 7.41814 0.0429688C8.69383 0.0429688 9.82528 0.302343 10.8124 0.821084C11.8147 1.32503 12.5893 2.05124 13.136 2.99978C13.6979 3.94838 13.9789 5.06736 13.9789 6.35684ZM8.85328 5.31191C8.85328 4.83764 8.7166 4.48931 8.44325 4.26704C8.1699 4.02988 7.82817 3.91132 7.41814 3.91132C6.49175 3.91132 5.96024 4.37821 5.82357 5.31191H8.85328Z" fill="#707FDA"/>
</svg>
