<svg width="14" height="14" viewBox="0 0 14 14" fill="none" xmlns="http://www.w3.org/2000/svg">
<path d="M7.00065 0.332031C4.82803 0.332031 2.89978 1.38362 1.68164 2.9987H1.66732V3.01693C0.833953 4.12983 0.333984 5.50562 0.333984 6.9987C0.333984 10.6727 3.32665 13.6654 7.00065 13.6654C10.6747 13.6654 13.6673 10.6727 13.6673 6.9987C13.6673 3.3247 10.6747 0.332031 7.00065 0.332031ZM9.00065 2.05469C10.9574 2.8436 12.334 4.7538 12.334 6.9987C12.334 8.39058 11.801 9.65091 10.9329 10.599C10.7624 10.0592 10.2637 9.66536 9.66732 9.66536H9.00065V7.66536C9.00065 7.29736 8.70198 6.9987 8.33398 6.9987H5.00065V5.66536H5.66732C6.03532 5.66536 6.33398 5.3667 6.33398 4.9987V3.66536H7.66732C8.40398 3.66536 9.00065 3.0687 9.00065 2.33203V2.05469ZM1.80534 5.80339L3.00065 6.9987L5.00065 8.9987V9.66536C5.00065 10.402 5.59732 10.9987 6.33398 10.9987V12.2865C3.69783 11.9595 1.66732 9.7258 1.66732 6.9987C1.66732 6.58682 1.71767 6.18805 1.80534 5.80339Z" fill="#707FDA"/>
</svg>
