<svg width="14" height="13" viewBox="0 0 14 13" fill="none" xmlns="http://www.w3.org/2000/svg">
<rect width="14" height="13" rx="4" fill="#F5A200"/>
<path d="M9.35156 8.90137V10H4.48828V9.0625L6.78809 6.59668C7.01921 6.33952 7.2015 6.11328 7.33496 5.91797C7.46842 5.7194 7.56445 5.54199 7.62305 5.38574C7.6849 5.22624 7.71582 5.07487 7.71582 4.93164C7.71582 4.7168 7.68001 4.53288 7.6084 4.37988C7.53678 4.22363 7.43099 4.10319 7.29102 4.01855C7.1543 3.93392 6.98503 3.8916 6.7832 3.8916C6.56836 3.8916 6.38281 3.94368 6.22656 4.04785C6.07357 4.15202 5.95638 4.29688 5.875 4.48242C5.79688 4.66797 5.75781 4.87793 5.75781 5.1123H4.34668C4.34668 4.68913 4.44759 4.30176 4.64941 3.9502C4.85124 3.59538 5.13607 3.3138 5.50391 3.10547C5.87174 2.89388 6.30794 2.78809 6.8125 2.78809C7.31055 2.78809 7.73047 2.86947 8.07227 3.03223C8.41732 3.19173 8.67773 3.42285 8.85352 3.72559C9.03255 4.02507 9.12207 4.38314 9.12207 4.7998C9.12207 5.03418 9.08464 5.26367 9.00977 5.48828C8.9349 5.70964 8.82747 5.93099 8.6875 6.15234C8.55078 6.37044 8.38477 6.5918 8.18945 6.81641C7.99414 7.04102 7.77767 7.27376 7.54004 7.51465L6.30469 8.90137H9.35156Z" fill="white"/>
</svg>
