<svg width="17" height="15" viewBox="0 0 17 15" fill="none" xmlns="http://www.w3.org/2000/svg">
<path d="M7.43054 13.5549L7.42983 13.5542C5.36017 11.6365 3.68202 10.0786 2.51545 8.62023C1.35468 7.16915 0.75 5.8759 0.75 4.49591C0.75 2.23655 2.47166 0.5 4.65 0.5C5.8868 0.5 7.08521 1.09095 7.86714 2.02186L8.25 2.47767L8.63286 2.02186C9.41479 1.09095 10.6132 0.5 11.85 0.5C14.0283 0.5 15.75 2.23655 15.75 4.49591C15.75 5.8759 15.1453 7.16915 13.9846 8.62023C12.818 10.0786 11.1398 11.6365 9.07017 13.5542L9.06946 13.5549L8.25 14.3171L7.43054 13.5549Z" stroke="#707FDA"/>
</svg>
