<svg width="16" height="12" viewBox="0 0 16 12" fill="none" xmlns="http://www.w3.org/2000/svg">
<path d="M2.66683 0.132812C2.0775 0.132812 1.60016 0.610146 1.60016 1.19948V2.79948V3.86615H11.7335H14.4002V2.26615C14.4002 1.67681 13.9228 1.19948 13.3335 1.19948H6.50641L6.17725 0.650521C5.98471 0.329454 5.6376 0.132812 5.26266 0.132812H2.66683ZM1.33454 4.93281C0.796406 4.93281 0.411048 5.4541 0.568914 5.96823L2.15225 11.113C2.29038 11.5605 2.70377 11.8661 3.17204 11.8661H8.00016H12.8283C13.2966 11.8661 13.7099 11.5605 13.8481 11.113L15.4314 5.96823C15.5893 5.4541 15.2039 4.93281 14.6658 4.93281H8.00016H1.33454Z" fill="#707FDA"/>
</svg>
