<svg width="17" height="20" viewBox="0 0 17 20" fill="none" xmlns="http://www.w3.org/2000/svg">
<path fill-rule="evenodd" clip-rule="evenodd" d="M16.5 0.485156V18.9997C16.5 19.552 16.0523 19.9997 15.5 19.9997H1.5C0.947715 19.9997 0.5 19.552 0.5 18.9997V0.485157C0.5 0.262142 0.734694 0.117093 0.934164 0.216828L4.36584 1.93266C4.45029 1.97489 4.54971 1.97489 4.63416 1.93266L8.36584 0.0668281C8.45029 0.024599 8.54971 0.024599 8.63416 0.0668281L12.3658 1.93266C12.4503 1.97489 12.5497 1.97489 12.6342 1.93266L16.0658 0.216828C16.2653 0.117093 16.5 0.262142 16.5 0.485156ZM3.5 5.99975C3.5 5.44746 3.94772 4.99975 4.5 4.99975H12.5C13.0523 4.99975 13.5 5.44746 13.5 5.99975C13.5 6.55203 13.0523 6.99975 12.5 6.99975H4.5C3.94772 6.99975 3.5 6.55203 3.5 5.99975ZM3.5 10.9997C3.5 10.4475 3.94772 9.99975 4.5 9.99975H12.5C13.0523 9.99975 13.5 10.4475 13.5 10.9997C13.5 11.552 13.0523 11.9997 12.5 11.9997H4.5C3.94772 11.9997 3.5 11.552 3.5 10.9997ZM3.5 15.9997C3.5 15.4475 3.94772 14.9997 4.5 14.9997H9.5C10.0523 14.9997 10.5 15.4475 10.5 15.9997C10.5 16.552 10.0523 16.9997 9.5 16.9997H4.5C3.94772 16.9997 3.5 16.552 3.5 15.9997Z" fill="#212121"/>
</svg>
