<svg width="23" height="18" viewBox="0 0 23 18" fill="none" xmlns="http://www.w3.org/2000/svg">
<path d="M0.5 15.8824V9.72274C0.5 8.93009 0.853543 8.17916 1.46344 7.67637L5.20695 4.59029C5.37891 4.44853 5.63753 4.57144 5.63753 4.79493V11.6415C5.63753 13.1183 7.273 14.0016 8.49904 13.187L13.3368 9.97279C13.6092 9.7918 13.9708 9.82846 14.2017 10.0605C15.0738 10.9367 15.0738 12.3574 14.2017 13.2337L10.4609 16.9921C9.81859 17.6375 8.94743 18 8.03905 18H2.6077C1.44365 18 0.5 17.0519 0.5 15.8824Z" fill="white"/>
<path d="M7.74523 9.79032V5.29415H22.4992V9.79414C22.4992 10.8175 21.6735 11.6471 20.6549 11.6471H19.2743C18.9789 11.6471 18.697 11.5225 18.4974 11.3037L15.3661 7.87167C14.845 7.30045 13.9896 7.19048 13.3421 7.61144L8.965 10.457C8.43911 10.7989 7.74523 10.4197 7.74523 9.79032Z" fill="white"/>
<path d="M22.4797 3.16697C21.9846 3.0745 12.5505 3.13378 7.74523 3.17651V2.11764C7.74523 0.948101 8.68889 0 9.85294 0H20.3055C21.5026 0 22.45 1.00097 22.4417 2.20368C22.4382 2.70421 22.4472 3.09176 22.4797 3.16697C22.4958 3.16999 22.5025 3.17316 22.4992 3.17651C22.4919 3.18379 22.4854 3.18025 22.4797 3.16697Z" fill="white"/>
</svg>
