<svg width="25" height="24" viewBox="0 0 25 24" fill="none" xmlns="http://www.w3.org/2000/svg">
<path d="M13.7 0C13.1348 0 12.6628 0.432094 12.6172 0.996094L12.5985 1.22344C12.5952 1.26301 12.6116 1.29718 12.6125 1.33594C11.6721 1.55462 10.8435 2.04688 10.2055 2.72813C10.172 2.70768 10.1505 2.67491 10.1141 2.65781L9.91019 2.56172C9.39898 2.32052 8.78713 2.5104 8.50393 3C8.22073 3.4896 8.36062 4.11278 8.82503 4.43438L9.01253 4.56563C9.04845 4.59051 9.08978 4.59485 9.12737 4.61484C8.99362 5.05609 8.90003 5.5151 8.90003 6C8.90003 6.48491 8.99362 6.94391 9.12737 7.38516C9.08978 7.40514 9.04845 7.40949 9.01253 7.43438L8.82503 7.56328C8.36062 7.88608 8.22073 8.5104 8.50393 9C8.78713 9.4896 9.39898 9.67948 9.91019 9.43828L10.1141 9.34219C10.1504 9.32506 10.1721 9.29231 10.2055 9.27188C10.843 9.95259 11.6707 10.4451 12.6102 10.6641C12.6092 10.7028 12.5929 10.737 12.5961 10.7766L12.6172 11.0039C12.664 11.5679 13.1348 12 13.7 12C14.2652 12 14.7373 11.5679 14.7829 11.0039L14.8016 10.7766C14.8049 10.737 14.7885 10.7028 14.7875 10.6641C15.7279 10.4454 16.5566 9.95312 17.1946 9.27188C17.2281 9.29239 17.2496 9.32501 17.286 9.34219L17.4899 9.44063C18.0011 9.68183 18.6129 9.49194 18.8962 9.00234C19.1794 8.51274 19.0395 7.88843 18.5751 7.56563L18.3876 7.43438C18.3516 7.40949 18.3103 7.40515 18.2727 7.38516C18.4065 6.94391 18.5001 6.48491 18.5001 6C18.5001 5.5151 18.4065 5.05609 18.2727 4.61484C18.3103 4.59486 18.3516 4.59051 18.3876 4.56563L18.5751 4.43672C19.0395 4.11392 19.1794 3.4896 18.8962 3C18.6129 2.5104 18.0011 2.32052 17.4899 2.56172L17.286 2.65781C17.2497 2.67494 17.228 2.70769 17.1946 2.72813C16.5571 2.04741 15.7294 1.55488 14.7899 1.33594C14.7909 1.29718 14.8072 1.26301 14.804 1.22344L14.7829 0.996094C14.7361 0.432094 14.2652 0 13.7 0ZM13.7 4.2C14.6936 4.2 15.5 5.0064 15.5 6C15.5 6.9936 14.6936 7.8 13.7 7.8C12.7064 7.8 11.9 6.9936 11.9 6C11.9 5.0064 12.7064 4.2 13.7 4.2ZM22.8032 12C22.3688 12 21.9344 12.1657 21.6032 12.4969L16.1 18H11.3C10.9688 18 10.7 17.7312 10.7 17.4C10.7 17.0688 10.9688 16.8 11.3 16.8H14.3C15.29 16.8 16.1 15.99 16.1 15C16.1 14.01 15.29 13.2 14.3 13.2H8.48752C7.21552 13.2 5.99611 13.7063 5.09611 14.6063L0.5 19.2L5.30001 24L7.70002 21.6H16.3063C16.9423 21.6 17.5532 21.3469 18.0032 20.8969L24.0032 14.8969C24.6656 14.2345 24.6656 13.1593 24.0032 12.4969C23.672 12.1657 23.2376 12 22.8032 12Z" fill="white"/>
</svg>
