<svg width="14" height="13" viewBox="0 0 14 13" fill="none" xmlns="http://www.w3.org/2000/svg">
<path d="M13.5764 6.35684C13.5764 6.66806 13.5382 6.9941 13.4625 7.33499H5.37581C5.42097 7.95754 5.56533 8.3873 5.80828 8.62447C6.05124 8.8468 6.37051 8.95797 6.76547 8.95797C7.31179 8.95797 7.70675 8.71341 7.9497 8.22431H13.3029C13.121 9.11357 12.7337 9.91389 12.1416 10.6253C11.5641 11.3219 10.8276 11.8778 9.93147 12.2927C9.05061 12.6929 8.07881 12.893 7.01605 12.893C5.74023 12.893 4.60116 12.6336 3.59882 12.1149C2.61175 11.5961 1.83711 10.855 1.27488 9.89167C0.728559 8.91346 0.455078 7.77226 0.455078 6.46795C0.455078 5.16369 0.728559 4.02988 1.27488 3.0665C1.83711 2.0883 2.61175 1.33981 3.59882 0.821084C4.60116 0.302343 5.74023 0.0429688 7.01605 0.0429688C8.29123 0.0429688 9.42267 0.302343 10.4097 0.821084C11.4121 1.32503 12.1867 2.05124 12.7337 2.99978C13.2953 3.94838 13.5764 5.06736 13.5764 6.35684ZM8.45086 5.31191C8.45086 4.83764 8.31412 4.48931 8.04064 4.26704C7.7678 4.02988 7.42563 3.91132 7.01605 3.91132C6.0894 3.91132 5.5577 4.37821 5.42097 5.31191H8.45086Z" fill="#707FDA"/>
</svg>
