<svg width="15" height="13" viewBox="0 0 15 13" fill="none" xmlns="http://www.w3.org/2000/svg">
<path d="M14.0505 0.195312V12.7341H8.99308V10.8222C8.59812 11.415 8.06642 11.8967 7.39862 12.2672C6.74545 12.6377 5.96317 12.823 5.05178 12.823C3.57881 12.823 2.42447 12.3413 1.5894 11.3779C0.769599 10.4145 0.359375 9.11029 0.359375 7.46515V0.195312H5.39395V6.84266C5.39395 7.43548 5.55295 7.90975 5.87222 8.26547C6.20612 8.60635 6.64687 8.77679 7.1932 8.77679C7.75542 8.77679 8.19554 8.60635 8.51481 8.26547C8.83344 7.90975 8.99308 7.43548 8.99308 6.84266V0.195312H14.0505Z" fill="#707FDA"/>
</svg>
