<svg width="14" height="13" viewBox="0 0 14 13" fill="none" xmlns="http://www.w3.org/2000/svg">
<path d="M13.7717 6.35684C13.7717 6.66806 13.7342 6.9941 13.6579 7.33499H5.57112C5.61691 7.95754 5.76065 8.3873 6.00424 8.62447C6.24719 8.8468 6.56582 8.95797 6.96078 8.95797C7.50774 8.95797 7.90206 8.71341 8.14501 8.22431H13.4989C13.3163 9.11357 12.929 9.91389 12.3369 10.6253C11.76 11.3219 11.0229 11.8778 10.1274 12.2927C9.24657 12.6929 8.27412 12.893 7.21136 12.893C5.93555 12.893 4.79647 12.6336 3.79413 12.1149C2.80706 11.5961 2.03241 10.855 1.47083 9.89167C0.923866 8.91346 0.650391 7.77226 0.650391 6.46795C0.650391 5.16369 0.923866 4.02988 1.47083 3.0665C2.03241 2.0883 2.80706 1.33981 3.79413 0.821084C4.79647 0.302343 5.93555 0.0429688 7.21136 0.0429688C8.48718 0.0429688 9.61863 0.302343 10.6057 0.821084C11.608 1.32503 12.3827 2.05124 12.929 2.99978C13.4912 3.94838 13.7717 5.06736 13.7717 6.35684ZM8.64618 5.31191C8.64618 4.83764 8.51007 4.48931 8.23659 4.26704C7.96311 4.02988 7.62158 3.91132 7.21136 3.91132C6.28471 3.91132 5.75365 4.37821 5.61691 5.31191H8.64618Z" fill="#707FDA"/>
</svg>
