<svg width="15" height="13" viewBox="0 0 15 13" fill="none" xmlns="http://www.w3.org/2000/svg">
<path d="M9.36922 0.109375C10.8428 0.109375 11.9889 0.591067 12.8093 1.55446C13.6444 2.51784 14.0623 3.82209 14.0623 5.46723V12.7371H9.02768V6.08972C9.02768 5.4969 8.86042 5.03002 8.52652 4.68913C8.20788 4.33342 7.77477 4.15559 7.22781 4.15559C6.66623 4.15559 6.22547 4.33342 5.90683 4.68913C5.5882 5.03002 5.42856 5.4969 5.42856 6.08972V12.7371H0.371094V0.198307H5.42856V2.11023C5.82352 1.51741 6.34759 1.0357 7.00012 0.665171C7.66856 0.294644 8.45847 0.109375 9.36922 0.109375Z" fill="#707FDA"/>
</svg>
