<svg width="21" height="16" viewBox="0 0 21 16" fill="none" xmlns="http://www.w3.org/2000/svg">
<path d="M19.9417 2.75C19.7568 1.65039 18.8759 0.849609 17.8536 0.599609C16.3238 0.25 13.4926 0 10.4293 0C7.36786 0 4.4913 0.25 2.95967 0.599609C1.93919 0.849609 1.05646 1.59961 0.871579 2.75C0.684883 4 0.5 5.75 0.5 8C0.5 10.25 0.684883 12 0.916893 13.25C1.10359 14.3496 1.9845 15.1504 3.00499 15.4004C4.62906 15.75 7.41318 16 10.4764 16C13.5397 16 16.3238 15.75 17.9479 15.4004C18.9684 15.1504 19.8493 14.4004 20.036 13.25C20.2209 12 20.4529 10.1992 20.5 8C20.4057 5.75 20.1737 4 19.9417 2.75ZM7.92432 11.5V4.5L13.585 8L7.92432 11.5Z" fill="#FF5959"/>
</svg>
