<svg width="16" height="15" viewBox="0 0 16 15" fill="none" xmlns="http://www.w3.org/2000/svg">
<path d="M8.01751 0.333984C7.79885 0.333984 7.594 0.441745 7.46934 0.621745L4.4446 5.00065H1.33392C1.12525 5.00065 0.929337 5.09767 0.80267 5.26367C0.677337 5.42901 0.634722 5.64373 0.689389 5.8444L2.39642 12.0215C2.55575 12.5975 3.08424 13.0007 3.68158 13.0007H10.2675L9.39121 9.54232C9.24721 8.97565 9.36982 8.38707 9.72715 7.92773C10.0825 7.4704 10.6388 7.19857 11.2141 7.19857C11.5348 7.19857 11.8533 7.28209 12.136 7.44076L14.5006 8.77018L15.3079 5.8457C15.3632 5.64504 15.3212 5.42901 15.1959 5.26367C15.0692 5.09767 14.8726 5.00065 14.6646 5.00065H11.5592L8.56829 0.624349C8.44429 0.443016 8.23945 0.334651 8.02012 0.333984H8.01751ZM8.01491 2.17773L9.94329 5.00065H6.06439L8.01491 2.17773ZM11.1646 8.5332C10.8534 8.56286 10.5957 8.86419 10.6842 9.21419L11.8808 13.9382C11.9808 14.3322 12.5109 14.4028 12.7102 14.0488L13.3535 12.9082L14.791 14.7507C15.0143 15.0433 15.4332 15.099 15.7258 14.8757C16.0185 14.6523 16.0742 14.2334 15.8508 13.9408L14.4368 12.1296L15.6321 11.8275C16.0261 11.7281 16.0974 11.1974 15.7428 10.9967L11.4824 8.60221C11.3775 8.54338 11.2684 8.52332 11.1646 8.5332Z" fill="#9397B2"/>
</svg>
