<svg width="19" height="19" viewBox="0 0 19 19" fill="none" xmlns="http://www.w3.org/2000/svg">
<path d="M11.4109 9.00026L18.701 1.71026C18.8648 1.51896 18.9504 1.27288 18.9407 1.02121C18.9309 0.769532 18.8266 0.530793 18.6485 0.352698C18.4704 0.174604 18.2317 0.0702709 17.98 0.0605497C17.7283 0.0508286 17.4823 0.136435 17.291 0.300261L10.0009 7.59026L2.71095 0.290261C2.51965 0.126435 2.27357 0.0408293 2.0219 0.0505505C1.77022 0.0602716 1.53148 0.164604 1.35339 0.342698C1.17529 0.520793 1.07096 0.759531 1.06124 1.01121C1.05152 1.26288 1.13712 1.50896 1.30095 1.70026L8.59095 9.00026L1.29095 16.2903C1.18627 16.3799 1.10125 16.4902 1.04122 16.6143C0.981202 16.7384 0.947471 16.8735 0.942151 17.0112C0.936832 17.1489 0.960038 17.2863 1.01031 17.4146C1.06059 17.5429 1.13685 17.6595 1.2343 17.7569C1.33175 17.8544 1.4483 17.9306 1.57663 17.9809C1.70495 18.0312 1.84228 18.0544 1.98 18.0491C2.11772 18.0437 2.25286 18.01 2.37692 17.95C2.50098 17.89 2.6113 17.8049 2.70095 17.7003L10.0009 10.4103L17.291 17.7003C17.4823 17.8641 17.7283 17.9497 17.98 17.94C18.2317 17.9303 18.4704 17.8259 18.6485 17.6478C18.8266 17.4697 18.9309 17.231 18.9407 16.9793C18.9504 16.7276 18.8648 16.4816 18.701 16.2903L11.4109 9.00026Z" fill="#707FDA"/>
</svg>
