<svg width="32" height="32" viewBox="0 0 32 32" fill="none" xmlns="http://www.w3.org/2000/svg">
<rect width="32" height="32" rx="16" fill="#F6F7FC"/>
<path d="M10.6668 10.1328C10.0775 10.1328 9.60016 10.6101 9.60016 11.1995V12.7995V13.8661H19.7335H22.4002V12.2661C22.4002 11.6768 21.9228 11.1995 21.3335 11.1995H14.5064L14.1772 10.6505C13.9847 10.3295 13.6376 10.1328 13.2627 10.1328H10.6668ZM9.33454 14.9328C8.79641 14.9328 8.41105 15.4541 8.56891 15.9682L10.1522 21.113C10.2904 21.5605 10.7038 21.8661 11.172 21.8661H16.0002H20.8283C21.2966 21.8661 21.7099 21.5605 21.8481 21.113L23.4314 15.9682C23.5893 15.4541 23.2039 14.9328 22.6658 14.9328H16.0002H9.33454Z" fill="#707FDA"/>
</svg>
