<svg width="32" height="32" viewBox="0 0 32 32" fill="none" xmlns="http://www.w3.org/2000/svg">
<rect width="32" height="32" rx="16" fill="#F6F7FC"/>
<path d="M12 8.66797V10.0013H11.3333C10.6 10.0013 10 10.6013 10 11.3346V20.668C10 21.4013 10.6 22.0013 11.3333 22.0013H20.6667C21.4 22.0013 22 21.4013 22 20.668V11.3346C22 10.6013 21.4 10.0013 20.6667 10.0013H20V8.66797H18.6667V10.0013H13.3333V8.66797H12ZM11.3333 13.3346H20.6667V20.668H11.3333V13.3346ZM14.6667 15.3346L12.6667 17.3346L14.6667 19.3346V18.0013H17.3333V19.3346L19.3333 17.3346L17.3333 15.3346V16.668H14.6667V15.3346Z" fill="#707FDA"/>
</svg>
