<svg width="32" height="32" viewBox="0 0 32 32" fill="none" xmlns="http://www.w3.org/2000/svg">
<rect width="32" height="32" rx="16" fill="#F6F7FC"/>
<path d="M12.0007 10C11.647 10 11.3079 10.1405 11.0578 10.3905C10.8078 10.6406 10.6673 10.9797 10.6673 11.3333C10.6673 11.687 10.8078 12.0261 11.0578 12.2761C11.3079 12.5262 11.647 12.6667 12.0007 12.6667C12.3543 12.6667 12.6934 12.5262 12.9435 12.2761C13.1935 12.0261 13.334 11.687 13.334 11.3333C13.334 10.9797 13.1935 10.6406 12.9435 10.3905C12.6934 10.1405 12.3543 10 12.0007 10ZM20.0007 10C19.647 10 19.3079 10.1405 19.0578 10.3905C18.8078 10.6406 18.6673 10.9797 18.6673 11.3333C18.6673 11.687 18.8078 12.0261 19.0578 12.2761C19.3079 12.5262 19.647 12.6667 20.0007 12.6667C20.3543 12.6667 20.6934 12.5262 20.9435 12.2761C21.1935 12.0261 21.334 11.687 21.334 11.3333C21.334 10.9797 21.1935 10.6406 20.9435 10.3905C20.6934 10.1405 20.3543 10 20.0007 10ZM16.0007 12.6667C15.647 12.6667 15.3079 12.8071 15.0578 13.0572C14.8078 13.3072 14.6673 13.6464 14.6673 14C14.6673 14.3536 14.8078 14.6928 15.0578 14.9428C15.3079 15.1929 15.647 15.3333 16.0007 15.3333C16.3543 15.3333 16.6934 15.1929 16.9435 14.9428C17.1935 14.6928 17.334 14.3536 17.334 14C17.334 13.6464 17.1935 13.3072 16.9435 13.0572C16.6934 12.8071 16.3543 12.6667 16.0007 12.6667ZM12.0007 15.3333C11.647 15.3333 11.3079 15.4738 11.0578 15.7239C10.8078 15.9739 10.6673 16.313 10.6673 16.6667C10.6673 17.0203 10.8078 17.3594 11.0578 17.6095C11.3079 17.8595 11.647 18 12.0007 18C12.3543 18 12.6934 17.8595 12.9435 17.6095C13.1935 17.3594 13.334 17.0203 13.334 16.6667C13.334 16.313 13.1935 15.9739 12.9435 15.7239C12.6934 15.4738 12.3543 15.3333 12.0007 15.3333ZM20.0007 15.3333C19.647 15.3333 19.3079 15.4738 19.0578 15.7239C18.8078 15.9739 18.6673 16.313 18.6673 16.6667C18.6673 17.0203 18.8078 17.3594 19.0578 17.6095C19.3079 17.8595 19.647 18 20.0007 18C20.3543 18 20.6934 17.8595 20.9435 17.6095C21.1935 17.3594 21.334 17.0203 21.334 16.6667C21.334 16.313 21.1935 15.9739 20.9435 15.7239C20.6934 15.4738 20.3543 15.3333 20.0007 15.3333ZM12.0007 19.3333C11.1107 19.3333 9.33398 19.8139 9.33398 20.7005V22H14.6673V20.7005C14.6673 19.8139 12.8907 19.3333 12.0007 19.3333ZM20.0007 19.3333C19.1107 19.3333 17.334 19.8139 17.334 20.7005V22H22.6673V20.7005C22.6673 19.8139 20.8907 19.3333 20.0007 19.3333Z" fill="#707FDA"/>
</svg>
