<svg width="32" height="33" viewBox="0 0 32 33" fill="none" xmlns="http://www.w3.org/2000/svg">
<rect y="0.5" width="32" height="32" rx="16" fill="#F6F7FC"/>
<path d="M16.0007 9.83203C13.828 9.83203 11.8998 10.8836 10.6816 12.4987H10.6673V12.5169C9.83395 13.6298 9.33398 15.0056 9.33398 16.4987C9.33398 20.1727 12.3266 23.1654 16.0007 23.1654C19.6747 23.1654 22.6673 20.1727 22.6673 16.4987C22.6673 12.8247 19.6747 9.83203 16.0007 9.83203ZM18.0007 11.5547C19.9574 12.3436 21.334 14.2538 21.334 16.4987C21.334 17.8906 20.801 19.1509 19.9329 20.099C19.7624 19.5592 19.2637 19.1654 18.6673 19.1654H18.0007V17.1654C18.0007 16.7974 17.702 16.4987 17.334 16.4987H14.0007V15.1654H14.6673C15.0353 15.1654 15.334 14.8667 15.334 14.4987V13.1654H16.6673C17.404 13.1654 18.0007 12.5687 18.0007 11.832V11.5547ZM10.8053 15.3034L12.0007 16.4987L14.0007 18.4987V19.1654C14.0007 19.902 14.5973 20.4987 15.334 20.4987V21.7865C12.6978 21.4595 10.6673 19.2258 10.6673 16.4987C10.6673 16.0868 10.7177 15.6881 10.8053 15.3034Z" fill="#707FDA"/>
</svg>
