<svg width="32" height="33" viewBox="0 0 32 33" fill="none" xmlns="http://www.w3.org/2000/svg">
<rect y="0.5" width="32" height="32" rx="16" fill="#F6F7FC"/>
<path d="M16.0007 9.83203C13.4233 9.83203 11.334 11.9214 11.334 14.4987C11.334 17.1427 14.27 21.0454 15.4847 22.546C15.7513 22.8754 16.25 22.8754 16.5167 22.546C17.7313 21.0454 20.6673 17.1427 20.6673 14.4987C20.6673 11.9214 18.578 9.83203 16.0007 9.83203ZM16.0007 16.1654C15.08 16.1654 14.334 15.4194 14.334 14.4987C14.334 13.578 15.08 12.832 16.0007 12.832C16.9213 12.832 17.6673 13.578 17.6673 14.4987C17.6673 15.4194 16.9213 16.1654 16.0007 16.1654Z" fill="#707FDA"/>
</svg>
