<svg width="32" height="32" viewBox="0 0 32 32" fill="none" xmlns="http://www.w3.org/2000/svg">
<rect width="32" height="32" rx="16" fill="#F6F7FC"/>
<path d="M12.6667 9.33203C12.313 9.33203 11.9739 9.47251 11.7239 9.72256C11.4738 9.9726 11.3333 10.3117 11.3333 10.6654C11.3333 11.019 11.4738 11.3581 11.7239 11.6082C11.9739 11.8582 12.313 11.9987 12.6667 11.9987C13.0203 11.9987 13.3594 11.8582 13.6095 11.6082C13.8595 11.3581 14 11.019 14 10.6654C14 10.3117 13.8595 9.9726 13.6095 9.72256C13.3594 9.47251 13.0203 9.33203 12.6667 9.33203ZM16 9.33203C15.6464 9.33203 15.3072 9.47251 15.0572 9.72256C14.8071 9.9726 14.6667 10.3117 14.6667 10.6654C14.6667 11.019 14.8071 11.3581 15.0572 11.6082C15.3072 11.8582 15.6464 11.9987 16 11.9987C16.3536 11.9987 16.6928 11.8582 16.9428 11.6082C17.1929 11.3581 17.3333 11.019 17.3333 10.6654C17.3333 10.3117 17.1929 9.9726 16.9428 9.72256C16.6928 9.47251 16.3536 9.33203 16 9.33203ZM19.3333 9.33203C18.9797 9.33203 18.6406 9.47251 18.3905 9.72256C18.1405 9.9726 18 10.3117 18 10.6654C18 11.019 18.1405 11.3581 18.3905 11.6082C18.6406 11.8582 18.9797 11.9987 19.3333 11.9987C19.687 11.9987 20.0261 11.8582 20.2761 11.6082C20.5262 11.3581 20.6667 11.019 20.6667 10.6654C20.6667 10.3117 20.5262 9.9726 20.2761 9.72256C20.0261 9.47251 19.687 9.33203 19.3333 9.33203ZM11.3333 12.6654C10.5967 12.6654 10 13.262 10 13.9987V18.6654H10.6667V22.6654H12V17.332H11.3333V13.9987H12.0677C12.169 13.5034 12.3889 13.0547 12.6836 12.6654H11.3333ZM15.3333 12.6654C14.2287 12.6654 13.3333 13.5607 13.3333 14.6654V19.9987H14V22.6654H15.3333V19.9987H16.6667V22.6654H18V19.9987H18.6667V14.6654C18.6667 13.5607 17.7713 12.6654 16.6667 12.6654H15.3333ZM19.3164 12.6654C19.6111 13.0547 19.8316 13.5034 19.9323 13.9987H20.6667V17.332H20V22.6654H21.3333V18.6654H22V13.9987C22 13.262 21.4033 12.6654 20.6667 12.6654H19.3164Z" fill="#707FDA"/>
</svg>
