<svg width="14" height="15" viewBox="0 0 14 15" fill="none" xmlns="http://www.w3.org/2000/svg">
<path d="M5.9937 0.833008C5.67436 0.833008 5.40138 1.05874 5.34005 1.37207L5.11739 2.5153C4.57022 2.72221 4.06428 3.01128 3.62 3.37598L2.52364 2.99837C2.22164 2.89437 1.88937 3.01925 1.72937 3.29525L0.724165 5.03744C0.564832 5.3141 0.622821 5.66534 0.863488 5.87467L1.74239 6.639C1.69669 6.9199 1.66687 7.20586 1.66687 7.49967C1.66687 7.79349 1.69669 8.07945 1.74239 8.36035L0.863488 9.12467C0.622821 9.33401 0.564832 9.68525 0.724165 9.96191L1.72937 11.7041C1.88871 11.9808 2.22164 12.1056 2.52364 12.0023L3.62 11.6247C4.06413 11.9891 4.57047 12.2772 5.11739 12.484L5.34005 13.6273C5.40138 13.9406 5.67436 14.1663 5.9937 14.1663H8.00672C8.32605 14.1663 8.59903 13.9406 8.66036 13.6273L8.88302 12.484C9.43019 12.2771 9.93614 11.9881 10.3804 11.6234L11.4768 12.001C11.7788 12.105 12.111 11.9808 12.271 11.7041L13.2762 9.96061C13.4356 9.68395 13.3776 9.33401 13.1369 9.12467L12.258 8.36035C12.3037 8.07945 12.3335 7.79349 12.3335 7.49967C12.3335 7.20586 12.3037 6.9199 12.258 6.639L13.1369 5.87467C13.3776 5.66534 13.4356 5.3141 13.2762 5.03744L12.271 3.29525C12.1117 3.01858 11.7788 2.89374 11.4768 2.99707L10.3804 3.37467C9.93628 3.0102 9.42994 2.72212 8.88302 2.5153L8.66036 1.37207C8.59903 1.05874 8.32605 0.833008 8.00672 0.833008H5.9937ZM7.00021 4.83301C8.47287 4.83301 9.66687 6.02701 9.66687 7.49967C9.66687 8.97234 8.47287 10.1663 7.00021 10.1663C5.52754 10.1663 4.33354 8.97234 4.33354 7.49967C4.33354 6.02701 5.52754 4.83301 7.00021 4.83301Z" fill="#707FDA"/>
</svg>
