<svg width="15" height="17" viewBox="0 0 15 17" fill="none" xmlns="http://www.w3.org/2000/svg">
<path d="M7.5 0C6.72375 0 6.09375 0.5712 6.09375 1.275V1.86602C3.66861 2.43278 1.875 4.42408 1.875 6.8V11.9L0.435791 12.8828H0.43396C0.300931 12.9596 0.191421 13.0656 0.115566 13.191C0.0397111 13.3163 -3.7412e-05 13.457 2.64224e-08 13.6C2.64224e-08 13.8254 0.0987723 14.0416 0.274588 14.201C0.450403 14.3604 0.68886 14.45 0.9375 14.45H7.5H14.0625C14.3111 14.45 14.5496 14.3604 14.7254 14.201C14.9012 14.0416 15 13.8254 15 13.6C15 13.457 14.9603 13.3163 14.8844 13.191C14.8086 13.0656 14.6991 12.9596 14.566 12.8828L13.125 11.9V6.8C13.125 4.42408 11.3314 2.43278 8.90625 1.86602V1.275C8.90625 0.5712 8.27625 0 7.5 0ZM5.625 15.3C5.625 16.235 6.46875 17 7.5 17C8.53125 17 9.375 16.235 9.375 15.3H5.625Z" fill="#C7CBE0"/>
</svg>
