<svg width="12" height="15" viewBox="0 0 12 15" fill="none" xmlns="http://www.w3.org/2000/svg">
<path d="M5.99935 0.166992C3.78348 0.166992 1.99935 1.95112 1.99935 4.16699V4.83366C1.26602 4.83366 0.666016 5.43366 0.666016 6.16699V12.8337C0.666016 13.567 1.26602 14.167 1.99935 14.167H9.99935C10.7327 14.167 11.3327 13.567 11.3327 12.8337V6.16699C11.3327 5.43366 10.7327 4.83366 9.99935 4.83366V4.16699C9.99935 1.95112 8.21522 0.166992 5.99935 0.166992ZM5.99935 1.50033C7.51681 1.50033 8.66602 2.64953 8.66602 4.16699V4.83366H3.33268V4.16699C3.33268 2.64953 4.48189 1.50033 5.99935 1.50033ZM3.33268 8.83366C3.69935 8.83366 3.99935 9.13366 3.99935 9.50033C3.99935 9.86699 3.69935 10.167 3.33268 10.167C2.96602 10.167 2.66602 9.86699 2.66602 9.50033C2.66602 9.13366 2.96602 8.83366 3.33268 8.83366ZM5.99935 8.83366C6.36602 8.83366 6.66602 9.13366 6.66602 9.50033C6.66602 9.86699 6.36602 10.167 5.99935 10.167C5.63268 10.167 5.33268 9.86699 5.33268 9.50033C5.33268 9.13366 5.63268 8.83366 5.99935 8.83366ZM8.66602 8.83366C9.03268 8.83366 9.33268 9.13366 9.33268 9.50033C9.33268 9.86699 9.03268 10.167 8.66602 10.167C8.29935 10.167 7.99935 9.86699 7.99935 9.50033C7.99935 9.13366 8.29935 8.83366 8.66602 8.83366Z" fill="#C7CBE0"/>
</svg>
