<svg width="15" height="10" viewBox="0 0 15 10" fill="none" xmlns="http://www.w3.org/2000/svg">
<path d="M7.50065 0.332031C2.65217 0.332031 0.833984 4.9987 0.833984 4.9987C0.833984 4.9987 2.65217 9.66537 7.50065 9.66537C12.3491 9.66537 14.1673 4.9987 14.1673 4.9987C14.1673 4.9987 12.3491 0.332031 7.50065 0.332031ZM7.50065 2.08203C9.17398 2.08203 10.531 3.38811 10.531 4.9987C10.531 6.60928 9.17398 7.91537 7.50065 7.91537C5.82732 7.91537 4.47035 6.60928 4.47035 4.9987C4.47035 3.38811 5.82732 2.08203 7.50065 2.08203ZM7.50065 3.2487C7.01844 3.2487 6.55598 3.43307 6.215 3.76126C5.87403 4.08945 5.68247 4.53457 5.68247 4.9987C5.68247 5.46283 5.87403 5.90795 6.215 6.23614C6.55598 6.56432 7.01844 6.7487 7.50065 6.7487C7.98286 6.7487 8.44532 6.56432 8.7863 6.23614C9.12728 5.90795 9.31883 5.46283 9.31883 4.9987C9.31883 4.53457 9.12728 4.08945 8.7863 3.76126C8.44532 3.43307 7.98286 3.2487 7.50065 3.2487Z" fill="#9397B2"/>
</svg>
