<svg width="28" height="28" viewBox="0 0 28 28" fill="none" xmlns="http://www.w3.org/2000/svg">
<path d="M2.33398 5.83366C2.33398 5.52424 2.4569 5.22749 2.67569 5.0087C2.89449 4.78991 3.19123 4.66699 3.50065 4.66699H24.5007C24.8101 4.66699 25.1068 4.78991 25.3256 5.0087C25.5444 5.22749 25.6673 5.52424 25.6673 5.83366V22.167C25.6673 22.4764 25.5444 22.7732 25.3256 22.992C25.1068 23.2107 24.8101 23.3337 24.5007 23.3337H3.50065C3.19123 23.3337 2.89449 23.2107 2.67569 22.992C2.4569 22.7732 2.33398 22.4764 2.33398 22.167V5.83366Z" stroke="#9397B2" stroke-width="2" stroke-linejoin="round"/>
<path d="M2.33398 9.33301H25.6673" stroke="#9397B2" stroke-width="2" stroke-linecap="square" stroke-linejoin="round"/>
<path d="M15.75 18.667H21" stroke="#9397B2" stroke-width="2" stroke-linecap="round" stroke-linejoin="round"/>
<path d="M25.668 5.83301V15.1663" stroke="#9397B2" stroke-width="2" stroke-linecap="round" stroke-linejoin="round"/>
<path d="M2.33398 5.83301V15.1663" stroke="#9397B2" stroke-width="2" stroke-linecap="round" stroke-linejoin="round"/>
</svg>
