<svg width="16" height="16" viewBox="0 0 16 16" fill="none" xmlns="http://www.w3.org/2000/svg">
<path d="M15.6961 4.13685C15.6961 4.13685 15.7958 0.939453 14.707 0.939453C13.748 0.939453 13.5321 2.08591 13.5321 4.13685H15.6961Z" fill="#707FDA"/>
<path fill-rule="evenodd" clip-rule="evenodd" d="M13.6728 0.939453C13.6728 0.939453 4.59096 0.941671 3.20404 0.941667C1.81892 1.2173 1.81892 2.43432 1.81892 3.96446V12.1289C1.81892 14.6806 0.302734 15.0596 0.302734 15.0596H11.3981C12.9143 15.0596 12.9143 13.7601 12.9143 11.8651V3.96446V3.29254C12.9143 1.94671 13.125 1.30041 13.6728 0.939453ZM11.0979 4.47296H3.70094V5.48055H11.0979V4.47296ZM3.70094 7.49573H11.0979V8.50332H3.70094V7.49573ZM11.0979 10.5185H3.70094V11.5261H11.0979V10.5185Z" fill="#707FDA"/>
</svg>
