<svg width="25" height="23" viewBox="0 0 25 23" fill="none" xmlns="http://www.w3.org/2000/svg">
<path d="M1.70106 2.37962C1.93506 4.18162 2.73606 8.02162 3.09906 9.64262C3.19406 10.1016 3.30006 10.4956 3.39706 10.6556C3.89806 11.5206 4.30406 10.3686 4.30406 10.3686C5.87106 5.68562 3.39706 2.66662 2.60706 1.85662C2.46806 1.70662 2.22306 1.52462 1.99906 1.46062C1.67906 1.36562 1.62506 1.54662 1.62506 1.69662C1.63506 1.84462 1.69006 2.26162 1.70006 2.37862L1.70106 2.37962ZM23.5361 0.916621C23.8461 1.14062 24.9221 2.27162 23.5361 2.44262C21.5521 2.67662 17.7761 2.81562 11.5141 8.05262C9.14706 10.0376 3.83406 15.3806 0.987056 22.0266C0.970294 22.0677 0.939037 22.1012 0.899219 22.1207C0.859401 22.1402 0.813794 22.1445 0.771056 22.1326C0.516056 22.0586 0.0570564 21.7806 0.291056 20.7146C0.611056 19.2746 3.49206 11.7766 11.1081 5.16262C13.5931 3.00762 19.5241 -2.06938 23.5341 0.917621L23.5361 0.916621Z" fill="#FF5C00"/>
</svg>
