<svg width="15" height="18" viewBox="0 0 15 18" fill="none" xmlns="http://www.w3.org/2000/svg">
<path d="M7.5 0.5C6.72375 0.5 6.09375 1.0712 6.09375 1.775V2.36602C3.66861 2.93278 1.875 4.92408 1.875 7.3V12.4L0.435791 13.3828H0.43396C0.300931 13.4596 0.191421 13.5656 0.115566 13.691C0.0397111 13.8163 -3.7412e-05 13.957 2.64224e-08 14.1C2.64224e-08 14.3254 0.0987723 14.5416 0.274588 14.701C0.450403 14.8604 0.68886 14.95 0.9375 14.95H7.5H14.0625C14.3111 14.95 14.5496 14.8604 14.7254 14.701C14.9012 14.5416 15 14.3254 15 14.1C15 13.957 14.9603 13.8163 14.8844 13.691C14.8086 13.5656 14.6991 13.4596 14.566 13.3828L13.125 12.4V7.3C13.125 4.92408 11.3314 2.93278 8.90625 2.36602V1.775C8.90625 1.0712 8.27625 0.5 7.5 0.5ZM5.625 15.8C5.625 16.735 6.46875 17.5 7.5 17.5C8.53125 17.5 9.375 16.735 9.375 15.8H5.625Z" fill="#707FDA"/>
</svg>
