<svg width="14" height="14" viewBox="0 0 14 14" fill="none" xmlns="http://www.w3.org/2000/svg">
<path d="M5.9937 0.333008C5.67436 0.333008 5.40138 0.558737 5.34005 0.87207L5.11739 2.0153C4.57022 2.22221 4.06428 2.51128 3.62 2.87598L2.52364 2.49837C2.22164 2.39437 1.88937 2.51925 1.72937 2.79525L0.724165 4.53744C0.564832 4.8141 0.622821 5.16534 0.863488 5.37467L1.74239 6.139C1.69669 6.4199 1.66687 6.70586 1.66687 6.99967C1.66687 7.29349 1.69669 7.57945 1.74239 7.86035L0.863488 8.62467C0.622821 8.83401 0.564832 9.18525 0.724165 9.46191L1.72937 11.2041C1.88871 11.4808 2.22164 11.6056 2.52364 11.5023L3.62 11.1247C4.06413 11.4891 4.57047 11.7772 5.11739 11.984L5.34005 13.1273C5.40138 13.4406 5.67436 13.6663 5.9937 13.6663H8.00672C8.32605 13.6663 8.59903 13.4406 8.66036 13.1273L8.88302 11.984C9.43019 11.7771 9.93614 11.4881 10.3804 11.1234L11.4768 11.501C11.7788 11.605 12.111 11.4808 12.271 11.2041L13.2762 9.46061C13.4356 9.18395 13.3776 8.83401 13.1369 8.62467L12.258 7.86035C12.3037 7.57945 12.3335 7.29349 12.3335 6.99967C12.3335 6.70586 12.3037 6.4199 12.258 6.139L13.1369 5.37467C13.3776 5.16534 13.4356 4.8141 13.2762 4.53744L12.271 2.79525C12.1117 2.51858 11.7788 2.39374 11.4768 2.49707L10.3804 2.87467C9.93628 2.5102 9.42994 2.22212 8.88302 2.0153L8.66036 0.87207C8.59903 0.558737 8.32605 0.333008 8.00672 0.333008H5.9937ZM7.00021 4.33301C8.47287 4.33301 9.66687 5.52701 9.66687 6.99967C9.66687 8.47234 8.47287 9.66634 7.00021 9.66634C5.52754 9.66634 4.33354 8.47234 4.33354 6.99967C4.33354 5.52701 5.52754 4.33301 7.00021 4.33301Z" fill="#C7CBE0"/>
</svg>
