<svg width="21" height="24" viewBox="0 0 21 24" fill="none" xmlns="http://www.w3.org/2000/svg">
<path d="M17.5436 1.80968C16.4323 0.543038 14.4235 0 11.8536 0H4.3951C4.14083 9.4148e-06 3.89491 0.0907222 3.70154 0.255829C3.50818 0.420937 3.38005 0.649608 3.3402 0.900731L0.234622 20.5971C0.172893 20.9855 0.473641 21.3372 0.867302 21.3372H5.47192L6.62834 14.0022L6.59245 14.2319C6.67484 13.7135 7.11826 13.331 7.64336 13.331H9.83146C14.13 13.331 17.4958 11.5851 18.479 6.5344C18.5082 6.38503 18.5335 6.23964 18.5553 6.0976C18.4312 6.03188 18.4312 6.03188 18.5553 6.0976C18.8481 4.23082 18.5533 2.96011 17.5436 1.80968Z" fill="#27346A"/>
<path d="M8.39025 5.42512C8.51613 5.36518 8.65381 5.33412 8.79324 5.3342H14.6406C15.333 5.3342 15.9788 5.37926 16.569 5.47425C16.7341 5.50058 16.8984 5.53202 17.0616 5.56852C17.2929 5.61956 17.5216 5.68203 17.7467 5.7557C18.0368 5.8526 18.3071 5.96545 18.5554 6.0976C18.8481 4.2301 18.5533 2.96011 17.5436 1.80968C16.4317 0.543038 14.4235 0 11.8536 0H4.39446C3.86929 0 3.42251 0.382336 3.3402 0.900731L0.234622 20.5964C0.172893 20.9854 0.473642 21.3366 0.866665 21.3366H5.47192L7.87113 6.12216C7.89472 5.97261 7.95429 5.83104 8.04472 5.70962C8.13515 5.5882 8.25373 5.49056 8.39025 5.42512Z" fill="#27346A"/>
<path d="M18.4786 6.53446C17.4954 11.5844 14.1297 13.3311 9.83107 13.3311H7.64233C7.11724 13.3311 6.67373 13.7135 6.59215 14.232L5.15348 23.3521C5.09973 23.692 5.36259 24.0001 5.70649 24.0001H9.58807C9.81042 24 10.0254 23.9206 10.1945 23.7762C10.3635 23.6317 10.4755 23.4317 10.5103 23.2121L10.5481 23.0143L11.2796 18.3778L11.3268 18.1215C11.3615 17.9019 11.4735 17.7019 11.6425 17.5575C11.8115 17.4131 12.0265 17.3337 12.2489 17.3336H12.8298C16.5899 17.3336 19.5341 15.806 20.3945 11.388C20.7536 9.54171 20.5678 8.00024 19.6178 6.91752C19.3297 6.58957 18.9718 6.31873 18.5549 6.09766C18.5324 6.24041 18.5079 6.38509 18.4786 6.53446Z" fill="#2790C3"/>
<path d="M17.527 5.68721C17.3737 5.64245 17.219 5.60281 17.063 5.56838C16.8997 5.53248 16.7354 5.50126 16.5704 5.47475C15.9796 5.37913 15.3342 5.33399 14.6411 5.33399H8.79453C8.655 5.33367 8.51722 5.365 8.39154 5.42562C8.25487 5.49087 8.13616 5.58844 8.04569 5.7099C7.95522 5.83135 7.89573 5.97303 7.87235 6.12266L6.62964 14.0021L6.59375 14.2318C6.6755 13.7133 7.11892 13.3309 7.6441 13.3309H9.83284C14.1314 13.3309 17.4971 11.5849 18.4803 6.53427C18.5096 6.38489 18.5341 6.24014 18.5567 6.09746C18.3077 5.96603 18.0382 5.85246 17.748 5.7562C17.6748 5.73192 17.6011 5.70892 17.5271 5.68721" fill="#1F264F"/>
</svg>
