<svg width="12" height="15" viewBox="0 0 12 15" fill="none" xmlns="http://www.w3.org/2000/svg">
<path d="M6.17904 0.336914C3.96316 0.336914 2.17904 2.12104 2.17904 4.33691V5.00358C1.4457 5.00358 0.845703 5.60358 0.845703 6.33691V13.0036C0.845703 13.7369 1.4457 14.3369 2.17904 14.3369H10.179C10.9124 14.3369 11.5124 13.7369 11.5124 13.0036V6.33691C11.5124 5.60358 10.9124 5.00358 10.179 5.00358V4.33691C10.179 2.12104 8.39491 0.336914 6.17904 0.336914ZM6.17904 1.67025C7.6965 1.67025 8.8457 2.81945 8.8457 4.33691V5.00358H3.51237V4.33691C3.51237 2.81945 4.66158 1.67025 6.17904 1.67025ZM3.51237 9.00358C3.87904 9.00358 4.17904 9.30358 4.17904 9.67025C4.17904 10.0369 3.87904 10.3369 3.51237 10.3369C3.1457 10.3369 2.8457 10.0369 2.8457 9.67025C2.8457 9.30358 3.1457 9.00358 3.51237 9.00358ZM6.17904 9.00358C6.5457 9.00358 6.8457 9.30358 6.8457 9.67025C6.8457 10.0369 6.5457 10.3369 6.17904 10.3369C5.81237 10.3369 5.51237 10.0369 5.51237 9.67025C5.51237 9.30358 5.81237 9.00358 6.17904 9.00358ZM8.8457 9.00358C9.21237 9.00358 9.51237 9.30358 9.51237 9.67025C9.51237 10.0369 9.21237 10.3369 8.8457 10.3369C8.47904 10.3369 8.17904 10.0369 8.17904 9.67025C8.17904 9.30358 8.47904 9.00358 8.8457 9.00358Z" fill="#707FDA"/>
</svg>
