<svg width="16" height="17" viewBox="0 0 16 17" fill="none" xmlns="http://www.w3.org/2000/svg">
<path d="M8.80003 0.5C8.42323 0.5 8.10855 0.788063 8.07815 1.16406L8.06565 1.31563C8.06345 1.34201 8.07441 1.36478 8.07503 1.39062C7.44809 1.53641 6.89567 1.86458 6.47033 2.31875C6.44799 2.30512 6.43367 2.28328 6.4094 2.27188L6.27346 2.20781C5.93266 2.04701 5.52476 2.1736 5.33595 2.5C5.14715 2.8264 5.24042 3.24185 5.55002 3.45625L5.67502 3.54375C5.69897 3.56034 5.72652 3.56323 5.75158 3.57656C5.66241 3.87073 5.60002 4.17673 5.60002 4.5C5.60002 4.82327 5.66241 5.12927 5.75158 5.42344C5.72652 5.43676 5.69897 5.43966 5.67502 5.45625L5.55002 5.54219C5.24042 5.75739 5.14715 6.1736 5.33595 6.5C5.52476 6.8264 5.93266 6.95299 6.27346 6.79219L6.4094 6.72813C6.43359 6.71671 6.44805 6.69487 6.47033 6.68125C6.89534 7.13506 7.44713 7.46342 8.07346 7.60938C8.07281 7.63522 8.06194 7.65799 8.06409 7.68438L8.07815 7.83594C8.10935 8.21194 8.42323 8.5 8.80003 8.5C9.17683 8.5 9.4915 8.21194 9.5219 7.83594L9.5344 7.68438C9.5366 7.65799 9.52564 7.63522 9.52503 7.60938C10.152 7.46359 10.7044 7.13542 11.1297 6.68125C11.1521 6.69493 11.1664 6.71667 11.1907 6.72813L11.3266 6.79375C11.6674 6.95455 12.0753 6.82796 12.2641 6.50156C12.4529 6.17516 12.3596 5.75895 12.05 5.54375L11.925 5.45625C11.9011 5.43966 11.8735 5.43677 11.8485 5.42344C11.9376 5.12927 12 4.82327 12 4.5C12 4.17673 11.9376 3.87073 11.8485 3.57656C11.8735 3.56324 11.9011 3.56034 11.925 3.54375L12.05 3.45781C12.3596 3.24261 12.4529 2.8264 12.2641 2.5C12.0753 2.1736 11.6674 2.04701 11.3266 2.20781L11.1907 2.27188C11.1665 2.28329 11.152 2.30513 11.1297 2.31875C10.7047 1.86494 10.1529 1.53658 9.52659 1.39062C9.52724 1.36478 9.53812 1.34201 9.53597 1.31563L9.5219 1.16406C9.4907 0.788063 9.17683 0.5 8.80003 0.5ZM8.80003 3.3C9.46243 3.3 10 3.8376 10 4.5C10 5.1624 9.46243 5.7 8.80003 5.7C8.13763 5.7 7.60002 5.1624 7.60002 4.5C7.60002 3.8376 8.13763 3.3 8.80003 3.3ZM14.8688 8.5C14.5792 8.5 14.2896 8.61045 14.0688 8.83125L10.4 12.5H7.20002C6.97922 12.5 6.80002 12.3208 6.80002 12.1C6.80002 11.8792 6.97922 11.7 7.20002 11.7H9.20003C9.86003 11.7 10.4 11.16 10.4 10.5C10.4 9.84 9.86003 9.3 9.20003 9.3H5.32502C4.47701 9.3 3.66407 9.6375 3.06407 10.2375L0 13.3L3.20001 16.5L4.80001 14.9H10.5375C10.9615 14.9 11.3688 14.7312 11.6688 14.4313L15.6688 10.4312C16.1104 9.98965 16.1104 9.27285 15.6688 8.83125C15.448 8.61045 15.1584 8.5 14.8688 8.5Z" fill="#99A29C"/>
</svg>
