<svg width="24" height="24" viewBox="0 0 24 24" fill="none" xmlns="http://www.w3.org/2000/svg">
<path d="M13.2 0C12.6348 0 12.1628 0.432094 12.1172 0.996094L12.0985 1.22344C12.0952 1.26301 12.1116 1.29718 12.1125 1.33594C11.1721 1.55462 10.3435 2.04688 9.7055 2.72813C9.67198 2.70768 9.6505 2.67491 9.61409 2.65781L9.41019 2.56172C8.89898 2.32052 8.28713 2.5104 8.00393 3C7.72073 3.4896 7.86062 4.11278 8.32503 4.43438L8.51253 4.56563C8.54845 4.59051 8.58978 4.59485 8.62737 4.61484C8.49362 5.05609 8.40003 5.5151 8.40003 6C8.40003 6.48491 8.49362 6.94391 8.62737 7.38516C8.58978 7.40514 8.54845 7.40949 8.51253 7.43438L8.32503 7.56328C7.86062 7.88608 7.72073 8.5104 8.00393 9C8.28713 9.4896 8.89898 9.67948 9.41019 9.43828L9.61409 9.34219C9.65039 9.32506 9.67207 9.29231 9.7055 9.27188C10.343 9.95259 11.1707 10.4451 12.1102 10.6641C12.1092 10.7028 12.0929 10.737 12.0961 10.7766L12.1172 11.0039C12.164 11.5679 12.6348 12 13.2 12C13.7652 12 14.2373 11.5679 14.2829 11.0039L14.3016 10.7766C14.3049 10.737 14.2885 10.7028 14.2875 10.6641C15.2279 10.4454 16.0566 9.95312 16.6946 9.27188C16.7281 9.29239 16.7496 9.32501 16.786 9.34219L16.9899 9.44063C17.5011 9.68183 18.1129 9.49194 18.3962 9.00234C18.6794 8.51274 18.5395 7.88843 18.0751 7.56563L17.8876 7.43438C17.8516 7.40949 17.8103 7.40515 17.7727 7.38516C17.9065 6.94391 18.0001 6.48491 18.0001 6C18.0001 5.5151 17.9065 5.05609 17.7727 4.61484C17.8103 4.59486 17.8516 4.59051 17.8876 4.56563L18.0751 4.43672C18.5395 4.11392 18.6794 3.4896 18.3962 3C18.1129 2.5104 17.5011 2.32052 16.9899 2.56172L16.786 2.65781C16.7497 2.67494 16.728 2.70769 16.6946 2.72813C16.0571 2.04741 15.2294 1.55488 14.2899 1.33594C14.2909 1.29718 14.3072 1.26301 14.304 1.22344L14.2829 0.996094C14.2361 0.432094 13.7652 0 13.2 0ZM13.2 4.2C14.1936 4.2 15 5.0064 15 6C15 6.9936 14.1936 7.8 13.2 7.8C12.2064 7.8 11.4 6.9936 11.4 6C11.4 5.0064 12.2064 4.2 13.2 4.2ZM22.3032 12C21.8688 12 21.4344 12.1657 21.1032 12.4969L15.6 18H10.8C10.4688 18 10.2 17.7312 10.2 17.4C10.2 17.0688 10.4688 16.8 10.8 16.8H13.8C14.79 16.8 15.6 15.99 15.6 15C15.6 14.01 14.79 13.2 13.8 13.2H7.98752C6.71552 13.2 5.49611 13.7063 4.59611 14.6063L0 19.2L4.80001 24L7.20002 21.6H15.8063C16.4423 21.6 17.0532 21.3469 17.5032 20.8969L23.5032 14.8969C24.1656 14.2345 24.1656 13.1593 23.5032 12.4969C23.172 12.1657 22.7376 12 22.3032 12Z" fill="#99A29C"/>
</svg>
