<svg width="15" height="11" viewBox="0 0 15 11" fill="none" xmlns="http://www.w3.org/2000/svg">
<path d="M0.230469 0.654297V10.8081H14.7359V0.654297H0.230469ZM3.85684 9.35758C3.85684 8.78052 3.6276 8.22709 3.21955 7.81904C2.81151 7.411 2.25808 7.18176 1.68102 7.18176V4.28067C2.25808 4.28067 2.81151 4.05143 3.21955 3.64338C3.6276 3.23534 3.85684 2.68191 3.85684 2.10484H11.1096C11.1096 2.68191 11.3388 3.23534 11.7469 3.64338C12.1549 4.05143 12.7083 4.28067 13.2854 4.28067V7.18176C12.7083 7.18176 12.1549 7.411 11.7469 7.81904C11.3388 8.22709 11.1096 8.78052 11.1096 9.35758H3.85684ZM7.48321 3.55539C8.28101 3.55539 8.93375 4.49825 8.93375 5.73121C8.93375 6.96418 8.28101 7.90703 7.48321 7.90703C6.6854 7.90703 6.03266 6.96418 6.03266 5.73121C6.03266 4.49825 6.6854 3.55539 7.48321 3.55539Z" fill="#707FDA"/>
</svg>
