<svg width="20" height="16" viewBox="0 0 20 16" fill="none" xmlns="http://www.w3.org/2000/svg">
<path d="M19.4417 2.75C19.2568 1.65039 18.3759 0.849609 17.3536 0.599609C15.8238 0.25 12.9926 0 9.92931 0C6.86786 0 3.9913 0.25 2.45967 0.599609C1.43919 0.849609 0.556462 1.59961 0.371579 2.75C0.184883 4 0 5.75 0 8C0 10.25 0.184883 12 0.416893 13.25C0.603589 14.3496 1.4845 15.1504 2.50499 15.4004C4.12906 15.75 6.91318 16 9.97644 16C13.0397 16 15.8238 15.75 17.4479 15.4004C18.4684 15.1504 19.3493 14.4004 19.536 13.25C19.7209 12 19.9529 10.1992 20 8C19.9057 5.75 19.6737 4 19.4417 2.75ZM7.42432 11.5V4.5L13.085 8L7.42432 11.5Z" fill="#FF5959"/>
</svg>
